<svg version="1.1" id="sbp" 
	xmlns="http://www.w3.org/2000/svg" 
	xmlns:xlink="http://www.w3.org/1999/xlink" x="0px" y="0px" viewBox="0 0 130.04 159.92" style="enable-background:new 0 0 130.04 159.92;" xml:space="preserve">
	<path></path>
	<g>
		<g>
			<polygon class="st1" points="0,34.81 19.43,69.43 19.43,90.53 0.03,125.09 		" />
			<polygon class="st2" points="74.59,56.83 92.79,45.71 130.04,45.68 74.59,79.55 		" />
			<polygon class="st3" points="74.49,34.61 74.59,80.43 55.12,68.51 55.12,0 		" />
			<polygon class="st4" points="130.04,45.68 92.79,45.71 74.49,34.61 55.12,0 		" />
			<polygon class="st5" points="74.59,125.28 74.59,103.04 55.12,91.34 55.13,159.92 		" />
			<polygon class="st6" points="92.75,114.26 19.43,69.43 0,34.81 129.97,114.22 		" />
			<polygon class="st7" points="55.13,159.92 74.59,125.28 92.75,114.26 129.97,114.22 		" />
			<polygon class="st8" points="0.03,125.09 55.27,91.34 36.7,79.99 19.43,90.53 		" />
		</g>
	</g>
</svg>