<svg xmlns="http://www.w3.org/2000/svg" 
	xmlns:xlink="http://www.w3.org/1999/xlink" 
	version="1.1" 
	x="0px" y="0px" 
	viewBox="0 0 61 78" 
	style="enable-background:new 0 0 61 78;" 
	xml:space="preserve">
	<g>
		<rect x="1.5" y="39" class="st0" width="58" height="1"/>
	</g>
	<g>
		<path class="st0" d="M55.87,2c1.58,0,1.88,0.16,2.14,0.3c0.3,0.16,0.53,0.39,0.69,0.69C58.84,3.25,59,3.55,59,5.13v67.74   c0,1.58-0.16,1.88-0.3,2.14c-0.16,0.3-0.39,0.53-0.69,0.69c-0.26,0.14-0.56,0.3-2.14,0.3H5.13c-1.58,0-1.88-0.16-2.14-0.3   c-0.3-0.16-0.53-0.39-0.69-0.69C2.16,74.75,2,74.45,2,72.87V5.13c0-1.58,0.16-1.88,0.3-2.14c0.16-0.3,0.39-0.53,0.69-0.69   C3.25,2.16,3.55,2,5.13,2H55.87 M55.87,0H5.13C3.34,0,2.7,0.19,2.05,0.53C1.39,0.88,0.88,1.39,0.53,2.05C0.19,2.7,0,3.34,0,5.13   v67.74c0,1.78,0.19,2.43,0.53,3.08c0.35,0.65,0.86,1.16,1.51,1.51C2.7,77.81,3.34,78,5.13,78h50.74c1.78,0,2.43-0.19,3.08-0.53   c0.65-0.35,1.16-0.86,1.51-1.51c0.35-0.65,0.53-1.3,0.53-3.08V5.13c0-1.78-0.19-2.43-0.53-3.08c-0.35-0.65-0.86-1.16-1.51-1.51   C58.3,0.19,57.66,0,55.87,0L55.87,0z"/>
	</g>
	<g>
		<path class="st1" d="M53,30.44c0-0.24,0.12-0.44,0.35-0.58c0.23-0.14,0.55-0.22,0.95-0.22c0.4,0,0.72,0.07,0.95,0.22   c0.23,0.14,0.35,0.34,0.35,0.58c0,0.24-0.12,0.44-0.35,0.58c-0.23,0.14-0.55,0.22-0.95,0.22c-0.4,0-0.72-0.07-0.95-0.22   C53.12,30.88,53,30.69,53,30.44z M55.31,30.44c0-0.15-0.09-0.27-0.27-0.35c-0.18-0.08-0.43-0.12-0.75-0.12   c-0.32,0-0.58,0.04-0.75,0.12c-0.18,0.08-0.27,0.2-0.27,0.35c0,0.15,0.09,0.27,0.27,0.35c0.18,0.08,0.43,0.12,0.75,0.12   c0.32,0,0.57-0.04,0.75-0.12C55.22,30.71,55.31,30.59,55.31,30.44z M53,28.66c0-0.24,0.12-0.44,0.35-0.58   c0.23-0.14,0.55-0.22,0.95-0.22c0.4,0,0.72,0.07,0.95,0.22c0.23,0.14,0.35,0.34,0.35,0.58s-0.12,0.44-0.35,0.58   c-0.23,0.14-0.55,0.22-0.95,0.22c-0.4,0-0.72-0.07-0.95-0.22C53.12,29.1,53,28.9,53,28.66z M55.31,28.66   c0-0.15-0.09-0.27-0.27-0.35c-0.18-0.08-0.43-0.12-0.75-0.12c-0.32,0-0.58,0.04-0.75,0.12c-0.18,0.08-0.27,0.2-0.27,0.35   c0,0.15,0.09,0.27,0.27,0.35c0.18,0.08,0.43,0.12,0.75,0.12c0.32,0,0.57-0.04,0.75-0.12C55.22,28.93,55.31,28.81,55.31,28.66z    M53,26.87c0-0.24,0.12-0.44,0.35-0.58s0.55-0.22,0.95-0.22c0.4,0,0.72,0.07,0.95,0.22c0.23,0.14,0.35,0.34,0.35,0.58   c0,0.24-0.12,0.44-0.35,0.58c-0.23,0.14-0.55,0.22-0.95,0.22c-0.4,0-0.72-0.07-0.95-0.22C53.12,27.31,53,27.12,53,26.87z    M55.31,26.87c0-0.15-0.09-0.27-0.27-0.35c-0.18-0.08-0.43-0.12-0.75-0.12c-0.32,0-0.58,0.04-0.75,0.12   c-0.18,0.08-0.27,0.2-0.27,0.35c0,0.15,0.09,0.27,0.27,0.35c0.18,0.08,0.43,0.12,0.75,0.12c0.32,0,0.57-0.04,0.75-0.12   C55.22,27.14,55.31,27.02,55.31,26.87z M53,25.09c0-0.24,0.12-0.44,0.35-0.58c0.23-0.14,0.55-0.22,0.95-0.22   c0.4,0,0.72,0.07,0.95,0.22c0.23,0.14,0.35,0.34,0.35,0.58s-0.12,0.44-0.35,0.58c-0.23,0.14-0.55,0.22-0.95,0.22   c-0.4,0-0.72-0.07-0.95-0.22C53.12,25.53,53,25.33,53,25.09z M55.31,25.09c0-0.15-0.09-0.27-0.27-0.35   c-0.18-0.08-0.43-0.12-0.75-0.12c-0.32,0-0.58,0.04-0.75,0.12c-0.18,0.08-0.27,0.2-0.27,0.35c0,0.15,0.09,0.27,0.27,0.35   c0.18,0.08,0.43,0.12,0.75,0.12c0.32,0,0.57-0.04,0.75-0.12C55.22,25.35,55.31,25.24,55.31,25.09z M53,23.3   c0-0.24,0.12-0.44,0.35-0.58s0.55-0.22,0.95-0.22c0.4,0,0.72,0.07,0.95,0.22c0.23,0.14,0.35,0.34,0.35,0.58   c0,0.24-0.12,0.44-0.35,0.58c-0.23,0.14-0.55,0.22-0.95,0.22c-0.4,0-0.72-0.07-0.95-0.22C53.12,23.74,53,23.54,53,23.3z    M55.31,23.3c0-0.15-0.09-0.27-0.27-0.35c-0.18-0.08-0.43-0.12-0.75-0.12c-0.32,0-0.58,0.04-0.75,0.12   c-0.18,0.08-0.27,0.2-0.27,0.35c0,0.15,0.09,0.27,0.27,0.35c0.18,0.08,0.43,0.12,0.75,0.12c0.32,0,0.57-0.04,0.75-0.12   C55.22,23.57,55.31,23.45,55.31,23.3z M53,21.51c0-0.24,0.12-0.44,0.35-0.58c0.23-0.14,0.55-0.22,0.95-0.22   c0.4,0,0.72,0.07,0.95,0.22c0.23,0.14,0.35,0.34,0.35,0.58s-0.12,0.44-0.35,0.58c-0.23,0.14-0.55,0.22-0.95,0.22   c-0.4,0-0.72-0.07-0.95-0.22C53.12,21.95,53,21.76,53,21.51z M55.31,21.51c0-0.15-0.09-0.27-0.27-0.35   c-0.18-0.08-0.43-0.12-0.75-0.12c-0.32,0-0.58,0.04-0.75,0.12c-0.18,0.08-0.27,0.2-0.27,0.35c0,0.15,0.09,0.27,0.27,0.35   c0.18,0.08,0.43,0.12,0.75,0.12c0.32,0,0.57-0.04,0.75-0.12C55.22,21.78,55.31,21.66,55.31,21.51z M53,17.94   c0-0.24,0.12-0.44,0.35-0.58s0.55-0.22,0.95-0.22c0.4,0,0.72,0.07,0.95,0.22c0.23,0.14,0.35,0.34,0.35,0.58   c0,0.24-0.12,0.44-0.35,0.58c-0.23,0.14-0.55,0.22-0.95,0.22c-0.4,0-0.72-0.07-0.95-0.22C53.12,18.38,53,18.19,53,17.94z    M55.31,17.94c0-0.15-0.09-0.27-0.27-0.35c-0.18-0.08-0.43-0.12-0.75-0.12c-0.32,0-0.58,0.04-0.75,0.12   c-0.18,0.08-0.27,0.2-0.27,0.35c0,0.15,0.09,0.27,0.27,0.35c0.18,0.08,0.43,0.12,0.75,0.12c0.32,0,0.57-0.04,0.75-0.12   C55.22,18.21,55.31,18.09,55.31,17.94z M53,16.16c0-0.24,0.12-0.44,0.35-0.58s0.55-0.22,0.95-0.22c0.4,0,0.72,0.07,0.95,0.22   c0.23,0.14,0.35,0.34,0.35,0.58c0,0.24-0.12,0.44-0.35,0.58c-0.23,0.14-0.55,0.22-0.95,0.22c-0.4,0-0.72-0.07-0.95-0.22   C53.12,16.6,53,16.4,53,16.16z M55.31,16.16c0-0.15-0.09-0.27-0.27-0.35c-0.18-0.08-0.43-0.12-0.75-0.12   c-0.32,0-0.58,0.04-0.75,0.12c-0.18,0.08-0.27,0.2-0.27,0.35c0,0.15,0.09,0.27,0.27,0.35c0.18,0.08,0.43,0.12,0.75,0.12   c0.32,0,0.57-0.04,0.75-0.12C55.22,16.42,55.31,16.31,55.31,16.16z M53,12.58c0-0.24,0.12-0.44,0.35-0.58   c0.23-0.14,0.55-0.22,0.95-0.22c0.4,0,0.72,0.07,0.95,0.22c0.23,0.14,0.35,0.34,0.35,0.58c0,0.24-0.12,0.44-0.35,0.58   c-0.23,0.14-0.55,0.22-0.95,0.22c-0.4,0-0.72-0.07-0.95-0.22C53.12,13.02,53,12.83,53,12.58z M55.31,12.58   c0-0.15-0.09-0.27-0.27-0.35c-0.18-0.08-0.43-0.12-0.75-0.12c-0.32,0-0.58,0.04-0.75,0.12c-0.18,0.08-0.27,0.2-0.27,0.35   c0,0.15,0.09,0.27,0.27,0.35c0.18,0.08,0.43,0.12,0.75,0.12c0.32,0,0.57-0.04,0.75-0.12C55.22,12.85,55.31,12.74,55.31,12.58z    M53,10.8c0-0.24,0.12-0.44,0.35-0.58S53.89,10,54.3,10c0.4,0,0.72,0.07,0.95,0.22c0.23,0.14,0.35,0.34,0.35,0.58   s-0.12,0.44-0.35,0.58S54.7,11.6,54.3,11.6c-0.4,0-0.72-0.07-0.95-0.22C53.12,11.24,53,11.04,53,10.8z M55.31,10.8   c0-0.15-0.09-0.27-0.27-0.35c-0.18-0.08-0.43-0.12-0.75-0.12c-0.32,0-0.58,0.04-0.75,0.12c-0.18,0.08-0.27,0.2-0.27,0.35   c0,0.15,0.09,0.27,0.27,0.35c0.18,0.08,0.43,0.12,0.75,0.12c0.32,0,0.57-0.04,0.75-0.12C55.22,11.07,55.31,10.95,55.31,10.8z"/>
	</g>
	<g>
		<path class="st1" d="M53,67.44c0-0.24,0.12-0.44,0.35-0.58c0.23-0.14,0.55-0.22,0.95-0.22c0.4,0,0.72,0.07,0.95,0.22   c0.23,0.14,0.35,0.34,0.35,0.58c0,0.24-0.12,0.44-0.35,0.58c-0.23,0.14-0.55,0.22-0.95,0.22c-0.4,0-0.72-0.07-0.95-0.22   C53.12,67.88,53,67.69,53,67.44z M55.31,67.44c0-0.15-0.09-0.27-0.27-0.35c-0.18-0.08-0.43-0.12-0.75-0.12   c-0.32,0-0.58,0.04-0.75,0.12c-0.18,0.08-0.27,0.2-0.27,0.35c0,0.15,0.09,0.27,0.27,0.35c0.18,0.08,0.43,0.12,0.75,0.12   c0.32,0,0.57-0.04,0.75-0.12C55.22,67.71,55.31,67.59,55.31,67.44z M53,65.66c0-0.24,0.12-0.44,0.35-0.58   c0.23-0.14,0.55-0.22,0.95-0.22c0.4,0,0.72,0.07,0.95,0.22c0.23,0.14,0.35,0.34,0.35,0.58s-0.12,0.44-0.35,0.58   c-0.23,0.14-0.55,0.22-0.95,0.22c-0.4,0-0.72-0.07-0.95-0.22C53.12,66.1,53,65.9,53,65.66z M55.31,65.66   c0-0.15-0.09-0.27-0.27-0.35c-0.18-0.08-0.43-0.12-0.75-0.12c-0.32,0-0.58,0.04-0.75,0.12c-0.18,0.08-0.27,0.2-0.27,0.35   c0,0.15,0.09,0.27,0.27,0.35c0.18,0.08,0.43,0.12,0.75,0.12c0.32,0,0.57-0.04,0.75-0.12C55.22,65.93,55.31,65.81,55.31,65.66z    M53,63.87c0-0.24,0.12-0.44,0.35-0.58c0.23-0.14,0.55-0.22,0.95-0.22c0.4,0,0.72,0.07,0.95,0.22c0.23,0.14,0.35,0.34,0.35,0.58   c0,0.24-0.12,0.44-0.35,0.58s-0.55,0.22-0.95,0.22c-0.4,0-0.72-0.07-0.95-0.22C53.12,64.31,53,64.12,53,63.87z M55.31,63.87   c0-0.15-0.09-0.27-0.27-0.35c-0.18-0.08-0.43-0.12-0.75-0.12c-0.32,0-0.58,0.04-0.75,0.12c-0.18,0.08-0.27,0.2-0.27,0.35   c0,0.15,0.09,0.27,0.27,0.35c0.18,0.08,0.43,0.12,0.75,0.12c0.32,0,0.57-0.04,0.75-0.12C55.22,64.14,55.31,64.02,55.31,63.87z    M53,62.09c0-0.24,0.12-0.44,0.35-0.58c0.23-0.14,0.55-0.22,0.95-0.22c0.4,0,0.72,0.07,0.95,0.22c0.23,0.14,0.35,0.34,0.35,0.58   c0,0.24-0.12,0.44-0.35,0.58c-0.23,0.14-0.55,0.22-0.95,0.22c-0.4,0-0.72-0.07-0.95-0.22C53.12,62.53,53,62.33,53,62.09z    M55.31,62.09c0-0.15-0.09-0.27-0.27-0.35c-0.18-0.08-0.43-0.12-0.75-0.12c-0.32,0-0.58,0.04-0.75,0.12   c-0.18,0.08-0.27,0.2-0.27,0.35c0,0.15,0.09,0.27,0.27,0.35c0.18,0.08,0.43,0.12,0.75,0.12c0.32,0,0.57-0.04,0.75-0.12   C55.22,62.35,55.31,62.24,55.31,62.09z M53,60.3c0-0.24,0.12-0.44,0.35-0.58s0.55-0.22,0.95-0.22c0.4,0,0.72,0.07,0.95,0.22   c0.23,0.14,0.35,0.34,0.35,0.58c0,0.24-0.12,0.44-0.35,0.58c-0.23,0.14-0.55,0.22-0.95,0.22c-0.4,0-0.72-0.07-0.95-0.22   C53.12,60.74,53,60.54,53,60.3z M55.31,60.3c0-0.15-0.09-0.27-0.27-0.35c-0.18-0.08-0.43-0.12-0.75-0.12   c-0.32,0-0.58,0.04-0.75,0.12c-0.18,0.08-0.27,0.2-0.27,0.35c0,0.15,0.09,0.27,0.27,0.35c0.18,0.08,0.43,0.12,0.75,0.12   c0.32,0,0.57-0.04,0.75-0.12C55.22,60.57,55.31,60.45,55.31,60.3z M53,58.51c0-0.24,0.12-0.44,0.35-0.58s0.55-0.22,0.95-0.22   c0.4,0,0.72,0.07,0.95,0.22c0.23,0.14,0.35,0.34,0.35,0.58s-0.12,0.44-0.35,0.58c-0.23,0.14-0.55,0.22-0.95,0.22   c-0.4,0-0.72-0.07-0.95-0.22C53.12,58.95,53,58.76,53,58.51z M55.31,58.51c0-0.15-0.09-0.27-0.27-0.35   c-0.18-0.08-0.43-0.12-0.75-0.12c-0.32,0-0.58,0.04-0.75,0.12c-0.18,0.08-0.27,0.2-0.27,0.35c0,0.15,0.09,0.27,0.27,0.35   c0.18,0.08,0.43,0.12,0.75,0.12c0.32,0,0.57-0.04,0.75-0.12C55.22,58.78,55.31,58.66,55.31,58.51z M53,54.94   c0-0.24,0.12-0.44,0.35-0.58c0.23-0.14,0.55-0.22,0.95-0.22c0.4,0,0.72,0.07,0.95,0.22c0.23,0.14,0.35,0.34,0.35,0.58   c0,0.24-0.12,0.44-0.35,0.58c-0.23,0.14-0.55,0.22-0.95,0.22c-0.4,0-0.72-0.07-0.95-0.22C53.12,55.38,53,55.19,53,54.94z    M55.31,54.94c0-0.15-0.09-0.27-0.27-0.35c-0.18-0.08-0.43-0.12-0.75-0.12c-0.32,0-0.58,0.04-0.75,0.12   c-0.18,0.08-0.27,0.2-0.27,0.35c0,0.15,0.09,0.27,0.27,0.35c0.18,0.08,0.43,0.12,0.75,0.12c0.32,0,0.57-0.04,0.75-0.12   C55.22,55.21,55.31,55.09,55.31,54.94z M53,53.16c0-0.24,0.12-0.44,0.35-0.58s0.55-0.22,0.95-0.22c0.4,0,0.72,0.07,0.95,0.22   c0.23,0.14,0.35,0.34,0.35,0.58c0,0.24-0.12,0.44-0.35,0.58s-0.55,0.22-0.95,0.22c-0.4,0-0.72-0.07-0.95-0.22   C53.12,53.6,53,53.4,53,53.16z M55.31,53.16c0-0.15-0.09-0.27-0.27-0.35c-0.18-0.08-0.43-0.12-0.75-0.12   c-0.32,0-0.58,0.04-0.75,0.12c-0.18,0.08-0.27,0.2-0.27,0.35c0,0.15,0.09,0.27,0.27,0.35c0.18,0.08,0.43,0.12,0.75,0.12   c0.32,0,0.57-0.04,0.75-0.12C55.22,53.42,55.31,53.31,55.31,53.16z M53,49.58c0-0.24,0.12-0.44,0.35-0.58   c0.23-0.14,0.55-0.22,0.95-0.22c0.4,0,0.72,0.07,0.95,0.22c0.23,0.14,0.35,0.34,0.35,0.58c0,0.24-0.12,0.44-0.35,0.58   c-0.23,0.14-0.55,0.22-0.95,0.22c-0.4,0-0.72-0.07-0.95-0.22C53.12,50.02,53,49.83,53,49.58z M55.31,49.58   c0-0.15-0.09-0.27-0.27-0.35c-0.18-0.08-0.43-0.12-0.75-0.12c-0.32,0-0.58,0.04-0.75,0.12c-0.18,0.08-0.27,0.2-0.27,0.35   c0,0.15,0.09,0.27,0.27,0.35c0.18,0.08,0.43,0.12,0.75,0.12c0.32,0,0.57-0.04,0.75-0.12C55.22,49.85,55.31,49.74,55.31,49.58z    M53,47.8c0-0.24,0.12-0.44,0.35-0.58C53.58,47.07,53.89,47,54.3,47c0.4,0,0.72,0.07,0.95,0.22c0.23,0.14,0.35,0.34,0.35,0.58   s-0.12,0.44-0.35,0.58c-0.23,0.14-0.55,0.22-0.95,0.22c-0.4,0-0.72-0.07-0.95-0.22C53.12,48.24,53,48.04,53,47.8z M55.31,47.8   c0-0.15-0.09-0.27-0.27-0.35c-0.18-0.08-0.43-0.12-0.75-0.12c-0.32,0-0.58,0.04-0.75,0.12c-0.18,0.08-0.27,0.2-0.27,0.35   c0,0.15,0.09,0.27,0.27,0.35c0.18,0.08,0.43,0.12,0.75,0.12c0.32,0,0.57-0.04,0.75-0.12C55.22,48.07,55.31,47.95,55.31,47.8z"/>
	</g>
	<g>
		<path class="st2" d="M46.72,10H9.22c-0.83,0-1.5-0.67-1.5-1.5S8.4,7,9.22,7h37.5c0.83,0,1.5,0.67,1.5,1.5S47.55,10,46.72,10z"/>
	</g>
	<g>
		<path class="st2" d="M32.72,16H9.22c-0.83,0-1.5-0.67-1.5-1.5S8.4,13,9.22,13h23.5c0.83,0,1.5,0.67,1.5,1.5S33.55,16,32.72,16z"/>
	</g>
	<g>
		<path class="st2" d="M40.72,22H9.22c-0.83,0-1.5-0.67-1.5-1.5S8.4,19,9.22,19h31.5c0.83,0,1.5,0.67,1.5,1.5S41.55,22,40.72,22z"/>
	</g>
</svg>