<svg xmlns="http://www.w3.org/2000/svg" viewBox="0 0 241.096 232.637">
	<g fill="none" stroke="#FFF" stroke-width="6" stroke-linecap="round" stroke-linejoin="round" stroke-miterlimit="10">
		<path d="M209.475 81.164l-4.774 3.024M31.136 94.097c-4.016 2.957-6.332 6.482-6.332 10.309 0 3.397 1.824 6.559 5.045 9.296M31.136 73.481c-4.016 2.956-6.331 6.482-6.331 10.308 0 3.825 2.315 7.351 6.332 10.308M31.136 94.097c4.541 3.343 11.263 5.955 19.316 7.438M31.132 52.867c-4.014 2.956-6.327 6.48-6.327 10.306 0 3.825 2.315 7.35 6.331 10.308M100.922 52.874c4.008 2.955 6.317 6.477 6.317 10.299 0 1.543-.386 3.035-1.097 4.463M31.136 73.481c7.239 5.33 20.024 8.806 34.886 8.806 1.941 0 3.843-.064 5.706-.179"/>
		<path d="M31.033 32.342c-3.947 2.94-6.219 6.436-6.219 10.227 0 3.821 2.31 7.343 6.318 10.298M31.132 52.867c7.236 5.336 20.027 8.816 34.899 8.816 14.868 0 27.654-3.477 34.891-8.809M100.922 52.874c4.013-2.957 6.326-6.481 6.326-10.305 0-3.794-2.275-7.292-6.227-10.233M31.033 32.342c7.22 5.373 20.056 8.881 34.989 8.881 14.942 0 27.782-3.511 34.999-8.888"/>
		<path d="M101.021 32.336c3.947-2.94 6.218-6.437 6.218-10.226C107.24 11.386 89.135 3 66.022 3c-23.109 0-41.218 8.386-41.218 19.11 0 3.792 2.275 7.291 6.228 10.233M144.769 191.37l-63.501 38.267L3 182.498l22.263-13.148M216.221 121.288l21.875 13.176-63.246 38.682-.76.46"/>
		<path d="M144.769 164.815l-63.501 38.263-56.005-33.728M216.221 121.288l21.875-13.379-21.735-13.091"/>
		<path d="M25.12 142.88L3 155.943l22.263 13.407M216.221 121.288l-41.371 25.303-.76.461M29.849 113.702l20.603-12.167M25.12 142.88l22.263 13.407M67.09 91.709l-16.638 9.826M98.891 72.127l7.251-4.491M194.486 108.197l21.875-13.379M106.142 67.636l53.69-33.251 78.264 47.14-21.735 13.293M194.486 108.197l-19.636 12.01-.934.566M29.849 113.702L3 129.559l22.12 13.321M144.428 138.636l-63.16 38.058-33.885-20.407M98.891 72.127l-1.754 1.086-.492.304M139.655 99.82l-21.573-13.193"/>
		<path d="M173.916 120.773l.174.106v26.173M144.769 164.815v-25.973l-.341-.206M144.769 164.815v26.555M110.359 117.964l34.069 20.672M144.769 191.37v11.53l29.321-18.669v-10.625M174.09 173.606v-26.554M139.655 99.82l34.261 20.953M67.09 91.709l15.785 9.578M102.659 113.292l-13.982-8.484M96.645 73.517l-4.92-3.009-19.997 11.6M88.677 104.808l-5.802-3.521M98.845 74.862l-2.2-1.345M118.082 86.627l-11.939-7.302M66.227 85.299l-4.961 2.877 5.824 3.533M66.227 85.299l5.501-3.191M110.359 117.964l-7.7-4.672M98.845 74.862l7.298 4.463M127.716 54.275l19.894 12.493 56.559 35.507"/>
	</g>
</svg>