<svg xmlns="http://www.w3.org/2000/svg" 
  xmlns:xlink="http://www.w3.org/1999/xlink" viewBox="0 0 72.87 72.89">
  <defs>
    <linearGradient id="a" gradientUnits="userSpaceOnUse" x1="205" y1="688.8" x2="214.8" y2="698.5">
      <stop stop-color="#3db94d"/>
      <stop offset=".97" stop-color="#fff"/>
      <stop offset=".97" stop-color="#fff"/>
      <stop offset="1" stop-color="#fff"/>
    </linearGradient>
    <linearGradient id="b" gradientUnits="userSpaceOnUse" y1="686.6" x2="0" y2="698.3">
      <stop stop-color="#1a5dad"/>
      <stop offset=".22" stop-color="#47c4f3"/>
      <stop offset=".22" stop-color="#47c4f3"/>
      <stop offset=".39" stop-color="#1a5dad"/>
      <stop offset="1" stop-color="#1a5dad"/>
    </linearGradient>
    <linearGradient id="d" gradientUnits="userSpaceOnUse" x1="222" y1="705.2" x2="212.3" y2="695.4" xlink:href="#a"/>
    <linearGradient id="c" gradientUnits="userSpaceOnUse" y1="707.4" x2="0" y2="695.7" xlink:href="#b"/>
  </defs>
  <path d="M.1 48.3v17.69c0 3.79 3.07 6.88 6.84 6.88h59c3.77 0 6.88-3.09 6.88-6.88V48.3H.12z" fill="#fff"/>
  <path d="M6.9.1h59c3.77 0 6.88 3.1 6.88 6.88v41.3H.08V6.98C.08 3.21 3.17.1 6.94.1z" fill="#1a5dad"/>
  <path d="M5 8.2v6.52h2.07c2.09 0 2.57-1.03 2.57-1.85 0-.81-.54-1.42-1.37-1.55v-.02c.46-.13 1.05-.52 1.05-1.5 0-1.11-.91-1.61-2.16-1.61H5m1.33 1.02h.59c1.02 0 1.07.63 1.07.81 0 .3-.17.81-1.02.81h-.65V9.2m0 2.64h.74c.91 0 1.16.46 1.16.92s-.33.91-1.16.91h-.74v-1.83m4.47-1.98v4.84h1.26v-2.31h.06l1.63 2.31h1.59l-2.03-2.55 1.79-2.29h-1.42l-1.55 2.2h-.06v-2.2H10.8m5.54 0v2c0 1.04.09 1.89-.65 1.89-.07 0-.15 0-.22-.04l-.06.98c.18.06.33.07.54.07 1.29 0 1.52-.5 1.52-2.9v-1.07h1.48v3.9h1.28V9.85h-3.88m5.4 1.26c.65-.37 1.13-.44 1.55-.44.57 0 1.09.3 1.09.83v.2h-.83c-2.05 0-2.38.92-2.38 1.59 0 .76.48 1.48 1.7 1.48 1.05 0 1.42-.57 1.52-.78h.02v.7h1.24v-3.05c0-.74-.17-1.87-2.13-1.87-.67 0-1.2.09-1.77.33v1m2.64 1.39v.13c0 1.04-.65 1.28-1.16 1.28-.55 0-.78-.28-.78-.61 0-.78 1.02-.79 1.72-.79h.22m3.14-2.64v1.57c0 .94-.06 1.68-.63 2.33h-.54v2.2h1.16V14.7h3.42v1.26h1.16v-2.2h-.79v-3.9h-3.79m.61 3.9c.52-.7.52-1.48.52-2.24v-.72h1.4v2.96h-1.92m9.72-3.9v4.84h1.26V9.86h-1.26m-5 0v4.84h2.35c1.33 0 1.94-.7 1.94-1.55 0-.55-.28-1.57-2.03-1.57h-.98V9.86h-1.28m1.28 2.57h.78c.72 0 .91.42.91.72 0 .37-.3.7-.91.7h-.78v-1.42M5.73 21.62h.67c.65 0 .91.24.91.59 0 .41-.39.65-.91.65-.33 0-.98-.07-1.66-.39l-.11.91c.76.33 1.46.41 1.81.41 1.39 0 2.18-.65 2.18-1.5 0-.81-.67-1.05-1.07-1.13v-.02c.24-.06.83-.3.83-1.07 0-.59-.39-1.28-1.89-1.28-.65 0-1.07.11-1.63.31l.02.92c.54-.28 1.15-.33 1.39-.33.59 0 .81.26.81.54 0 .2-.11.5-.7.5h-.65v.89m4.16-1.52c.65-.37 1.13-.42 1.55-.42.57 0 1.09.3 1.09.83v.2h-.11c-.22 0-.48-.02-.7-.02-2.05 0-2.4.94-2.4 1.61 0 .76.5 1.48 1.72 1.48 1.05 0 1.4-.59 1.52-.79h.02v.7h1.24v-3.05c0-.72-.18-1.85-2.14-1.85-.65 0-1.18.07-1.77.31v1m2.64 1.4v.11c0 1.05-.63 1.29-1.15 1.29-.57 0-.78-.28-.78-.63 0-.78 1.02-.78 1.72-.78h.2m5.9-2.59a4.72 4.72 0 00-1.07-.13c-1.72 0-2.62 1.16-2.62 2.44 0 1.27.79 2.55 2.53 2.55.54 0 1-.13 1.24-.2l-.06-.92c-.31.15-.68.2-.96.2-.89 0-1.42-.68-1.42-1.55 0-.98.65-1.61 1.5-1.61.3 0 .55.04.79.13l.07-.91m.39-.06v.92h1.52v3.9h1.28v-3.9h1.52v-.92h-4.31m6.27 6.82v-1.85l-.02-.79h.02c.26.41.68.74 1.39.74 1.05 0 2.09-.72 2.09-2.49 0-1.79-.94-2.5-2.03-2.5-.2 0-1.09.04-1.59.91h-.02v-.83h-1.11v6.82h1.28m0-4.4c0-1.04.55-1.5 1.07-1.5s1.07.46 1.07 1.5c0 1.02-.55 1.48-1.07 1.48s-1.07-.46-1.07-1.48m4.69-1.18c.65-.37 1.13-.42 1.55-.42.57 0 1.09.3 1.09.83v.2h-.11c-.22 0-.48-.02-.7-.02-2.05 0-2.4.94-2.4 1.61 0 .76.5 1.48 1.72 1.48 1.05 0 1.4-.59 1.52-.79h.02v.7h1.24v-3.05c0-.72-.18-1.85-2.14-1.85-.65 0-1.18.07-1.77.31v1m2.64 1.4v.11c0 1.05-.63 1.29-1.15 1.29-.57 0-.78-.28-.78-.63 0-.78 1.02-.78 1.72-.78h.2m2.11-2.64l1.5 2.35-1.63 2.48h1.4l.76-1.26.3-.57h.04l.3.55.79 1.28h1.5l-1.61-2.48 1.46-2.35h-1.39l-.63 1.11-.3.57h-.02l-.3-.55-.67-1.13h-1.52m5.36 2.42c0 1.61 1.07 2.49 2.5 2.49 1.44 0 2.49-.89 2.49-2.49 0-1.63-1.05-2.5-2.49-2.5-1.42 0-2.5.87-2.5 2.5m1.33 0c0-1.13.61-1.59 1.16-1.59.57 0 1.16.46 1.16 1.59 0 1.11-.59 1.57-1.16 1.57-.55 0-1.16-.46-1.16-1.57m4.58-2.42v4.82h2.46c1.09 0 1.79-.48 1.79-1.35 0-.79-.55-1.15-1.11-1.18v-.02c.5-.11.91-.48.91-1.09 0-.52-.28-1.18-1.66-1.18h-2.38m1.28.83h.79c.24 0 .7.04.7.54s-.46.52-.7.52h-.79v-1.05m0 1.89h.81c.3 0 .83.04.83.65 0 .63-.59.63-.83.63h-.81v-1.27m4.31-1.48c.65-.37 1.13-.42 1.55-.42.57 0 1.09.3 1.09.83v.2h-.11c-.24 0-.48-.02-.72-.02-2.05 0-2.4.94-2.4 1.61 0 .76.5 1.48 1.72 1.48 1.05 0 1.42-.59 1.52-.79h.02v.7h1.24v-3.05c0-.72-.17-1.85-2.13-1.85-.67 0-1.2.07-1.77.31v1m2.64 1.4v.11c0 1.05-.65 1.29-1.16 1.29-.55 0-.78-.28-.78-.63 0-.78 1.02-.78 1.72-.78h.22m2.48-2.64v4.82h1.26V21.6h2.05v2.07h1.26v-4.82h-1.26v1.83h-2.05v-1.83h-1.26m10.81 0v4.82h1.26v-4.82h-1.26m-5 0v4.82h2.33c1.35 0 1.94-.7 1.94-1.55 0-.55-.26-1.55-2.03-1.55h-.98v-1.72h-1.26m1.26 2.55h.79c.72 0 .91.44.91.72 0 .37-.3.72-.91.72h-.79V21.4z" fill="#fff"/>
  <path d="M203.9 700.4l2.94-2.83 5.88 6c.94.96 1.7 1.72 2.83 1.9l-4.16.02c-2 0-3.38-.87-4.82-2.37l-2.66-2.75z" fill="url(#c)" transform="translate(-197.8 -636.7)"/>
  <path d="M223 700.4l-2.94-2.98-4.12 4.31c-.52.55-1.07.37-1.48-.04l-4.12-4.12-.89.91 5.34 5.38c1.39 1.4 3.38 1.5 4.77.07l3.44-3.53z" fill="url(#d)" transform="translate(-197.8 -636.7)"/>
  <path d="M223 693.4l-2.94 2.83-5.88-6c-.94-.98-1.7-1.74-2.83-1.9l4.18-.04c1.98 0 3.36.87 4.81 2.37l2.66 2.75z" fill="url(#b)" transform="translate(-197.8 -636.7)"/>
  <path d="M203.9 693.4l2.94 2.98 4.12-4.31c.54-.54 1.07-.37 1.48.06l4.12 4.1.89-.89-5.34-5.38c-1.39-1.4-3.38-1.52-4.77-.09l-3.44 3.53z" fill="url(#a)" transform="translate(-197.8 -636.7)"/>
  <path d="M34.5 54.8c-.18.09-.44.17-.79.17-.68 0-1.31-.37-1.31-1.29 0-.78.52-1.33 1.37-1.33.3 0 .54.06.76.15l.04-.67c-.3-.09-.55-.13-.85-.13-1.2 0-2.13.67-2.13 1.98 0 1.4 1.04 1.94 2 1.94.3 0 .65-.04.98-.17l-.06-.65m.63-2.05v2.83h.79l1.26-2h.02l-.02.54v1.46h.74v-2.83h-.83l-1.22 2h-.02l.02-.52v-1.48h-.74m5.47.02c-.2-.06-.44-.07-.63-.07-1 0-1.53.68-1.53 1.44 0 .74.48 1.48 1.48 1.48.33 0 .59-.06.74-.11l-.04-.54c-.18.07-.39.11-.57.11-.52 0-.83-.39-.83-.91 0-.57.39-.94.89-.94.19 0 .33.02.46.07l.04-.54m.24-.02v.54h.89v2.29h.74v-2.29h.89v-.54h-2.51m5.47 1.63v-.17c0-.24-.02-1.52-1.31-1.52-.76 0-1.4.55-1.4 1.46 0 1 .68 1.46 1.53 1.46.33 0 .68-.06.98-.17v-.55c-.26.11-.55.18-.89.18-.55 0-.81-.33-.85-.7h1.94m-1.94-.5c.02-.37.26-.67.59-.67.28 0 .59.18.59.67H44.4m4.64 1.7l.57-1.66.13-.46h.04l-.02.52v1.61h.74v-2.83h-1.03l-.59 1.61-.15.5h-.06l-.17-.5-.57-1.61H46.9v2.83h.74v-1.61l-.02-.52h.02l.15.46.55 1.66h.7m2.35-2.11c.39-.22.67-.26.91-.26.35 0 .65.18.65.5v.11h-.48c-1.2 0-1.4.54-1.4.92 0 .44.28.87 1 .87.63 0 .83-.33.89-.46h.02v.43h.72v-1.79c0-.42-.11-1.09-1.26-1.09-.37 0-.7.06-1.03.18v.59m1.55.81v.07c0 .61-.37.76-.68.76-.33 0-.44-.17-.44-.37 0-.44.59-.46 1-.46h.13m-18.41 7.12c-.18.07-.44.17-.79.17-.68 0-1.31-.39-1.31-1.31 0-.78.52-1.31 1.37-1.31.3 0 .54.06.76.15l.04-.67c-.3-.09-.55-.13-.85-.13-1.2 0-2.13.67-2.13 1.98 0 1.39 1.04 1.94 2 1.94.3 0 .65-.06.98-.17l-.06-.65m.33-2.07v.55h.89v2.27h.74v-2.27h.89v-.55h-2.51m3.64 4v-1.55c.15.22.41.42.81.42.63 0 1.24-.42 1.24-1.46 0-1.05-.55-1.46-1.2-1.46-.11 0-.63.02-.92.54h-.02v-.5h-.63v4h.72m0-2.59c0-.61.33-.87.65-.87.3 0 .63.26.63.87 0 .59-.33.87-.63.87-.31 0-.65-.28-.65-.87m2.77-.7c.37-.2.65-.24.91-.24.33 0 .63.17.63.48v.13h-.06c-.15 0-.28-.02-.43-.02-1.2 0-1.4.55-1.4.94 0 .44.3.87 1.02.87.61 0 .81-.35.89-.46v.41h.74v-1.77c0-.42-.11-1.09-1.26-1.09-.39 0-.7.04-1.04.18v.57m1.53.83v.07c0 .61-.37.76-.67.76-.33 0-.46-.17-.46-.37 0-.46.59-.46 1.02-.46h.11m1.24-1.55l.87 1.37-.94 1.46h.83l.44-.74.17-.33h.02l.17.33.48.74h.89l-.96-1.46.87-1.37h-.81l-.39.65-.17.33h-.02l-.15-.31-.41-.67h-.89m3.16 1.42c0 .94.61 1.46 1.46 1.46s1.46-.52 1.46-1.46-.61-1.46-1.46-1.46-1.46.52-1.46 1.46m.78 0c0-.67.35-.92.68-.92.33 0 .68.26.68.92 0 .65-.35.92-.68.92-.33 0-.68-.28-.68-.92m2.7-1.42v2.83h1.42c.65 0 1.05-.28 1.05-.78 0-.48-.31-.68-.65-.7v-.02c.3-.06.52-.28.52-.63 0-.31-.15-.7-.96-.7h-1.39m.74.5h.46c.13 0 .43.02.43.3 0 .31-.28.31-.43.31h-.46v-.61m0 1.11h.46c.18 0 .5.02.5.37 0 .37-.35.37-.48.37h-.48v-.74m2.51-.89c.39-.2.67-.24.91-.24.35 0 .65.17.65.48v.13h-.06c-.15 0-.3-.02-.43-.02-1.2 0-1.4.55-1.4.94 0 .44.3.87 1 .87.63 0 .83-.35.89-.46h.02v.41h.72v-1.77c0-.42-.09-1.09-1.24-1.09-.39 0-.7.04-1.05.18v.57m1.55.83v.07c0 .61-.37.76-.68.76-.31 0-.44-.17-.44-.37 0-.46.59-.46 1-.46h.13M57 59.29v2.83h.74v-1.2h1.2v1.2h.74v-2.83h-.74v1.07h-1.2v-1.07H57m3.38 0v2.83h.79l1.26-2h.02l-.02.54v1.46h.74v-2.83h-.83l-1.22 2h-.02l.04-.5v-1.5h-.76m5.86 0h-1.46c-.48 0-1 .28-1 .85 0 .33.17.7.65.83l-.7 1.15h.87l.57-1.05h.33v1.05h.74v-2.83m-.74.5v.79H65c-.24 0-.44-.17-.44-.41 0-.2.15-.39.44-.39h.5m-33.71 5.1v3.83h1.22c1.22 0 1.5-.61 1.5-1.07 0-.48-.31-.85-.81-.92.28-.09.63-.31.63-.89 0-.65-.52-.94-1.28-.94h-1.26m.78.59h.35c.59 0 .63.37.63.48 0 .17-.09.48-.59.48h-.39v-.96m0 1.55h.44c.54 0 .68.28.68.54 0 .28-.2.54-.68.54h-.44v-1.07m2.51-1.15v2.83h.74v-1.35h.04l.94 1.35h.94l-1.2-1.5 1.05-1.33h-.83l-.91 1.28h-.04v-1.28h-.74m3.25 0v1.16c0 .61.04 1.11-.37 1.11-.06 0-.09 0-.13-.02l-.04.57c.11.04.18.04.31.04.72 0 .87-.3.87-1.7v-.63h.87v2.29h.74v-2.83h-2.25m3.14.72c.39-.2.67-.26.91-.26.35 0 .65.18.65.5v.11h-.48c-1.2 0-1.4.55-1.4.94 0 .44.28.85 1 .85.63 0 .83-.33.89-.44h.02v.41h.72v-1.79c0-.42-.11-1.09-1.26-1.09-.37 0-.7.06-1.04.18v.59m1.55.81v.07c0 .61-.37.76-.68.76-.33 0-.44-.17-.44-.37 0-.44.59-.46 1-.46h.13m1.85-1.53v.91c0 .55-.04.98-.37 1.37h-.31v1.29h.68v-.74h2v.74h.68v-1.29h-.46v-2.27h-2.22m.35 2.27c.31-.41.3-.87.3-1.31v-.43h.83v1.74h-1.13m2.59-.87c0 .96.63 1.46 1.46 1.46.85 0 1.46-.5 1.46-1.46 0-.94-.61-1.46-1.46-1.46-.83 0-1.46.52-1.46 1.46m.78 0c0-.65.35-.92.68-.92.33 0 .68.28.68.92 0 .67-.35.92-.68.92-.33 0-.68-.26-.68-.92m2.7-1.4v2.83h1.42c.65 0 1.05-.28 1.05-.79 0-.46-.31-.67-.65-.68v-.02c.3-.07.54-.28.54-.65 0-.3-.17-.68-.98-.68h-1.39m.74.48h.46c.15 0 .43.02.43.31 0 .3-.28.31-.43.31h-.46v-.63m0 1.11h.46c.19 0 .5.02.5.37 0 .39-.35.37-.48.37h-.48v-.74z" fill="#1a5dad"/>
</svg>