<svg xmlns="http://www.w3.org/2000/svg" height="512" viewBox="0 0 512 400" width="512" style="
    width: 50px;
    height: 45px;
">
	<g>
		<path d="m160 24h232a24 24 0 0 1 24 24v304a24 24 0 0 1 -24 24h-232a0 0 0 0 1 0 0v-352a0 0 0 0 1 0 0z" fill="#34507b" style="
			fill: #9e1d20;
		"></path><path d="m128 24h232a24 24 0 0 1 24 24v304a24 24 0 0 1 -24 24h-232a0 0 0 0 1 0 0v-352a0 0 0 0 1 0 0z" fill="#a0dde5" style="
			fill: #d5cad8;
		"></path><path d="m352 48v304a24.006 24.006 0 0 1 -24 24h-232v-352h232a24.023 24.023 0 0 1 24 24z" fill="#34507b" style="
			fill: #9e1d20;
		"></path><path d="m352 48v304a24.006 24.006 0 0 1 -24 24h-232v-105.39c98.98-40.25 193.5-113.43 252.02-235.83a23.8 23.8 0 0 1 3.98 13.22z" fill="#2f486e" style="
			fill: #9e1d20;
		"></path>
		<g fill="#ffb531">
			<path d="m192 160h64v64h-64z"></path><path d="m216 224-16 40h48l-16-40z"></path><path d="m245.333 168h-42.666v-42.667a21.333 21.333 0 0 1 21.333-21.333 21.333 21.333 0 0 1 21.333 21.333z"></path><path d="m184 120h32v16h-32z"></path><path d="m184 120h32v16h-32z" style="
				d: path(&quot;m 234 120 h 32 v 16 h -32 Z&quot;);
			"></path><path d="m192 160h-24a40 40 0 0 0 -40-40v40a40 40 0 0 0 40 40h24z"></path>
			<path d="m256 160h24a40 40 0 0 1 40-40v40a40 40 0 0 1 -40 40h-24z"></path>
			<path d="m202.343 202.343-34.343 34.343v-12.686h-16v12.686l-18.343-18.343-11.314 11.314 18.343 18.343h-12.686v16h28.686l13.657 13.657 11.314-11.314-10.343-10.343 42.343-42.343z"></path>
			<path d="m325.657 229.657-11.314-11.314-18.343 18.343v-12.686h-16v12.686l-34.343-34.343-11.314 11.314 42.343 42.343-10.343 10.343 11.314 11.314 13.657-13.657h28.686v-16h-12.686z"></path>
			<path d="m168 64h112v16h-112z"></path><path d="m192 296h64v48h-64z"></path>
		</g>
	</g>
</svg>