<svg xmlns="http://www.w3.org/2000/svg" viewBox="-60 -110 680 670" fill="#fff">
	<path d="M333.054 198.948a10.076 10.076 0 00-7.071-2.93c-2.63 0-5.211 1.069-7.071 2.93-1.86 1.86-2.93 4.44-2.93 7.071s1.07 5.211 2.93 7.07a10.077 10.077 0 007.071 2.931c2.63 0 5.21-1.07 7.071-2.931a10.072 10.072 0 002.93-7.07c0-2.642-1.07-5.211-2.93-7.071z"/><path d="M499.488 5.648c-.112-.086-.229-.164-.344-.245A29.832 29.832 0 00481.997 0H201.972a29.813 29.813 0 00-16.22 4.782c-.372.218-.731.46-1.077.728-7.679 5.44-12.706 14.386-12.706 24.492v156.014c0 16.543 13.459 30.003 30.003 30.003h74.007c5.524 0 10.001-4.478 10.001-10.001 0-5.522-4.477-10.001-10.001-10.001h-64.197l82.079-95.902 42.271 30.505a9.992 9.992 0 005.853 1.891 9.992 9.992 0 005.841-1.883l42.332-30.455 82.031 95.844h-102.2c-5.523 0-10.001 4.478-10.001 10.001s4.477 10.001 10.001 10.001h112.01c16.544 0 30.003-13.459 30.003-30.003V30.003c-.002-10.02-4.945-18.902-12.514-24.355zM192.202 188.136a9.998 9.998 0 01-.231-2.119V30.003c0-1.07.173-2.099.486-3.067l85.131 61.436-85.386 99.764zm149.793-77.951L217.03 20.002h250.318l-125.353 90.183zm150.003 75.832c0 .727-.083 1.435-.231 2.119L406.45 88.452l85.141-61.253a9.95 9.95 0 01.407 2.803v156.015zM447.994 437.118a9.96 9.96 0 00-4.197.921h-4.882c-5.523 0-10.001 4.478-10.001 10.001 0 5.522 4.477 10.001 10.001 10.001h9.08c5.523 0 10.001-4.478 10.001-10.001v-.921c-.001-5.522-4.478-10.001-10.002-10.001zM447.994 387.114c-5.523 0-10.001 4.478-10.001 10.001v10.001c0 5.523 4.477 10.001 10.001 10.001s10.001-4.478 10.001-10.001v-10.001c0-5.523-4.477-10.001-10.001-10.001zM398.911 438.039H388.91c-5.523 0-10.001 4.478-10.001 10.001 0 5.522 4.477 10.001 10.001 10.001h10.001c5.524 0 10.001-4.478 10.001-10.001 0-5.522-4.478-10.001-10.001-10.001zM447.994 237.1c-5.523 0-10.001 4.478-10.001 10.001v10.001c0 5.522 4.477 10.001 10.001 10.001s10.001-4.478 10.001-10.001v-10.001c0-5.522-4.477-10.001-10.001-10.001zM447.994 287.105c-5.523 0-10.001 4.478-10.001 10.001v10.001c0 5.522 4.477 10.001 10.001 10.001s10.001-4.478 10.001-10.001v-10.001c0-5.523-4.477-10.001-10.001-10.001zM447.994 337.109c-5.523 0-10.001 4.478-10.001 10.001v10.001c0 5.523 4.477 10.001 10.001 10.001s10.001-4.478 10.001-10.001V347.11c0-5.522-4.477-10.001-10.001-10.001zM73.961 54.005H63.96c-5.523 0-10.001 4.478-10.001 10.001s4.478 10.001 10.001 10.001h10.001c5.523 0 10.001-4.478 10.001-10.001-.001-5.523-4.478-10.001-10.001-10.001zM123.965 54.005h-10.001c-5.523 0-10.001 4.478-10.001 10.001s4.478 10.001 10.001 10.001h10.001c5.523 0 10.001-4.478 10.001-10.001s-4.477-10.001-10.001-10.001zM63.96 94.008c-5.523 0-10.001 4.478-10.001 10.001v10.001c0 5.523 4.478 10.001 10.001 10.001s10.001-4.478 10.001-10.001v-10.001c0-5.522-4.478-10.001-10.001-10.001zM63.96 144.013c-5.523 0-10.001 4.478-10.001 10.001v10.001c0 5.523 4.478 10.001 10.001 10.001s10.001-4.478 10.001-10.001v-10.001c0-5.523-4.478-10.001-10.001-10.001zM110.604 405.356a10.076 10.076 0 00-7.071-2.93c-2.64 0-5.211 1.07-7.081 2.93-1.86 1.86-2.92 4.44-2.92 7.071s1.06 5.21 2.92 7.071c1.87 1.859 4.45 2.93 7.081 2.93s5.2-1.07 7.071-2.93c1.86-1.86 2.93-4.44 2.93-7.071s-1.07-5.21-2.93-7.071z"/><path d="M311.293 415.936l-52.694-52.694c-15.122-15.121-39.729-15.122-54.853.001l-3.433 3.434c-4.768 4.77-12.528 4.769-17.297 0l-37.692-37.692c-2.31-2.31-3.582-5.381-3.582-8.648s1.272-6.338 3.583-8.648l3.433-3.434c15.123-15.123 15.123-39.73 0-54.853l-52.695-52.695c-15.123-15.122-39.731-15.122-54.852 0l-12.609 12.608c-38.136 38.137-38.136 100.19 0 138.326l34.375 34.375c3.905 3.904 10.238 3.904 14.144 0 3.905-3.905 3.905-10.238 0-14.144l-34.375-34.375c-30.338-30.338-30.338-79.701 0-110.039l12.608-12.608c7.324-7.325 19.241-7.325 26.565 0l52.694 52.694c7.325 7.324 7.325 19.241 0 26.565l-3.433 3.434a32.63 32.63 0 00-3.418 4.032l-41.621-41.621c-3.905-3.904-10.238-3.904-14.144 0-3.905 3.905-3.905 10.238 0 14.144l49.963 49.962c.824 7.199 4.019 13.865 9.22 19.066l37.692 37.692c12.568 12.566 33.016 12.567 45.584-.001l3.434-3.434c7.324-7.325 19.241-7.325 26.565 0l52.695 52.694a18.667 18.667 0 015.502 13.282 18.66 18.66 0 01-5.503 13.282l-7.16 7.16-47.961-47.961c-3.905-3.904-10.238-3.904-14.144 0-3.905 3.905-3.905 10.238 0 14.144l47.268 47.268c-30.403 22.039-73.274 19.378-100.652-8.002l-25.898-25.898c-3.905-3.903-10.238-3.904-14.143 0-3.905 3.905-3.905 10.238 0 14.144l25.898 25.898C179.425 502.465 204.473 512 229.521 512s50.095-9.534 69.164-28.603l12.607-12.608c7.327-7.326 11.361-17.065 11.361-27.426s-4.035-20.101-11.36-27.427z"/>
</svg>