<svg xmlns="http://www.w3.org/2000/svg" viewBox="7.2 35.6 86.1 27.2">
  <path fill="#333" d="M36.3 38.4c0-.6 0-.8-.2-1H39c2.1 0 3.2 1 3.2 2.7 0 1.7-1.1 2.9-3.2 2.9h-1v1.5c0 .6 0 .8.2 1h-2.1c0-.4.2-.6.2-1.1v-6zm2.3 0h-.8v3.4h.8c1.1 0 1.9-.6 1.9-1.7s-.6-1.7-1.9-1.7zm7.2 6.7l-2.5-5.5c-.2-.6-.4-1-.8-1.1H45c-.2.4-.2.8 0 1.1l1.5 3.6 1.3-3.6c.2-.4.2-.8 0-1.1h1.7c-.2.2-.4.6-.6 1L47 44.4c-.4 1.4-1 2.6-2.7 2.6-.8 0-1.3-.2-1.9-.8l.6-1c.4.4.8.8 1.3.8.8.2 1.1-.2 1.5-.9zm7.1.3c-1.7 0-3.2-1.1-3.2-3.4 0-2.1 1.5-3.4 3.6-3.4 1 0 1.3.2 1.9.2.2 0 .4 0 .6-.2l-.6 1.5c-.4-.4-.8-.8-1.7-.8-1.3 0-2.1 1.1-2.1 2.7s.6 2.5 1.9 2.5c1 0 1.7-.4 2.1-1l.4.8c-.9.8-1.6 1.1-2.9 1.1zm6.2 0c-1.7 0-3.2-1.1-3.2-3.4 0-2.1 1.5-3.4 3.6-3.4 1 0 1.3.2 1.9.2.2 0 .4 0 .6-.2l-.6 1.5c-.4-.4-.8-.8-1.7-.8-1.3 0-2.1 1.1-2.1 2.7s.6 2.5 1.9 2.5c1 0 1.7-.4 2.1-1l.4.8c-.8.8-1.5 1.1-2.9 1.1zm5.5-3.6l2.3-2.5c.4-.4.4-.6.4-1h2.1c-.6.4-.8.6-1.1 1l-2.1 2.1 2.3 2.9 1.1 1.1h-2.7c0-.4 0-.6-.4-.8l-1.9-2.8v2.5c0 .6 0 .8.2 1h-2.1c.2-.2.2-.4.2-1v-4.8c0-.6 0-.8-.2-1h2.1c-.2.2-.2.4-.2 1v2.3zm10.5-2.3c0-.6 0-.8-.2-1H77c-.2.2-.2.4-.2 1v4.8c0 .6 0 .8.2 1h-2.1c.2-.2.2-.4.2-1v-3.2l-2.9 3v.2c0 .6 0 .8.2 1h-2.1c.2-.2.2-.4.2-1v-4.8c0-.6 0-.8-.2-1h2.1c-.2.2-.2.4-.2 1v3.2l2.9-3v-.2zm7.8 0c0-.6 0-.8-.2-1h2.1c-.2.2-.2.4-.2 1v4.8c0 .6 0 .8.2 1h-2.1c.2-.2.2-.4.2-1v-3.2l-2.9 3v.2c0 .6 0 .8.2 1h-2.1c.2-.2.2-.4.2-1v-4.8c0-.6 0-.8-.2-1h2.1c-.2.3-.2.5-.2 1v3.2l2.9-3v-.2zm-1.7-3c-.2.2-.2.4-.2.6s.2.4.6.4c.4 0 .6-.2.6-.4s0-.4-.2-.6h.6c.2.2.2.4.2.6 0 .6-.6.8-1.3.8s-1.5-.4-1.5-.8c0-.2.2-.6.2-.6h1zM41.6 48.7c-.6-.6-1.1-1-2.1-1-1.5 0-2.5 1.3-2.5 3.2s.8 3 2.5 3c1 0 1.7-.4 2.3-1.1l.4.8c-.8.8-1.5 1.3-3.2 1.3-2.5 0-4-1.5-4-4 0-2.3 1.7-4 4.2-4 1.1 0 1.5.2 2.3.2.4 0 .6 0 .8-.2l-.7 1.8zm2.3.3c-.8 0-1 0-1.5.4l.6-1.1h6l-.6 1.1c-.2-.2-.4-.4-1-.4h-1.1v5c0 .6 0 .8.2 1h-2.1c.2-.2.2-.4.2-1v-5h-.7zm9.1 4.4h-2.9l-.1.4c-.2.6-.2.8 0 1.1h-1.7c.2-.2.4-.6.6-1L51 49c-.2-.2-.2-.4-.6-.6h1.9l2.5 5.7c.2.4.4.8.8 1h-2.3c.2-.4.2-.6 0-1.1l-.3-.6zm-2.6-.7h2.3l-1.1-2.9-1.2 2.9zm10.6-.8h-2.9V54c0 .6 0 .8.2 1h-2.1c.2-.2.2-.4.2-1v-4.8c0-.6 0-.8-.2-1h2.1c-.2.2-.2.4-.2 1v1.9H61v-1.9c0-.6 0-.8-.2-1h1.9c-.2.2-.2.4-.2 1V54c0 .6 0 .8.2 1h-2.1c.2-.2.2-.4.2-1v-2.1h.2zm8.6 1.3c0 .6.2 1 .8 1.1v1.1c-.8-.6-1.1-.8-1.7-.8h-3.4c-.6 0-1.1.2-1.7.8v-1.1C64.8 54 65 53 65 51.7V49c0-.6 0-.8-.2-1h5.3c-.1.3-.1.5-.1 1v4.2h-.4zm-3.8-1.3c0 1-.2 1.7-.6 2.1h2.3c.2 0 .4-.2.4-.4v-4.8h-1.7c-.2 0-.4.2-.4.4v2.7zm9.9 1.5h-2.9l-.2.4c-.2.6-.2.8 0 1.1h-1.7c.2-.2.4-.6.6-1l2.1-4.9c-.2-.2-.2-.4-.6-.6h1.9l2.5 5.7c.2.4.4.8.8 1h-2.5c.2-.4.2-.6 0-1.1v-.6zm-2.7-.7h2.3l-1.1-2.9-1.2 2.9zm8.4-4.6c2.1 0 3 .8 3 2.3 0 1.5-1.1 2.5-3 2.5h-.8V54c0 .6 0 .8.2 1h-2.1c.2-.2.2-.4.2-1v-4.8c0-.6 0-.8-.2-1h2.7v-.1zm-.8.8v3h.6c1.1 0 1.7-.6 1.7-1.5 0-1-.6-1.5-1.7-1.5h-.6zM36.1 62.5c.2-.2.2-.4.2-.8v-3.4c0-.4 0-.6-.2-.8h3.6l-.4.8h-1.9v1.3h.6c1.1 0 2.1.4 2.1 1.5s-.8 1.5-2.1 1.5h-1.9v-.1zm1.7-.5c.6 0 1-.2 1-1 0-.6-.4-1-1-1h-.4v1.7h.4v.3zm5.9-.4h-2.1l-.2.2c-.2.4-.2.6 0 .8h-1.1c.2-.2.4-.4.4-.8l1.5-3.6c-.2-.2-.2-.4-.4-.6h1.5l1.7 4.2c.2.4.2.6.6.8h-1.7c.2-.4 0-.4 0-.8l-.2-.2zm-1.9-.6h1.7l-.8-2.1-.9 2.1zm7.8-.5h-2.1V62c0 .4 0 .6.2.8h-1.5c.2-.2.2-.4.2-.8v-3.6c0-.4 0-.6-.2-.8h1.5c-.2.4-.2.4-.2.8v1.3h2.1v-1.3c0-.4 0-.6-.2-.8H51c-.2.2-.2.4-.2.8v3.4c0 .4 0 .6.2.8h-1.5c.2-.2.2-.4.2-.8v-1.3zm3.8-.4l1.7-1.7c.4-.4.4-.4.4-.6H57c-.4.2-.6.4-1 .8l-1.5 1.5L56 62c.4.4.6.6 1 .8h-1.9c0-.2 0-.4-.2-.6l-1.5-2.1v1.7c0 .4 0 .6.2.8h-1.5c.2-.2.2-.4.2-.8v-3.4c0-.4 0-.6-.2-.8h1.5c-.2.2-.2.4-.2.8v1.7zM86.1 49c-.8 0-1 0-1.5.4l.6-1.1h6.1l-.6 1.1c-.2-.2-.4-.4-1-.4h-1.1v5c0 .6 0 .8.2 1h-2.1c.2-.2.2-.4.2-1v-5h-.8zm6.3-1.3c.2 0 .4 0 .4-.2 0 0 0-.2-.2-.2h-.2v.4zm0 .4l-.2-1h.6v.2c0 .2 0 .2-.2.2l.2.2v.2h-.2v-.2s0-.2-.2-.2h-.2v.6h.2zm.2-1.1c-.4 0-.6.4-.6.8s.2.8.6.8c.4 0 .6-.4.6-.8.1-.5-.2-.8-.6-.8zm0-.2c.4 0 .8.4.8.8s-.4.8-.8.8-.8-.4-.8-.8c0-.5.4-.8.8-.8zM19.8 59.3c-6.3 0-11.2-4.9-11.2-11.2s4.9-11.2 11.2-11.2S31 41.8 31 48.1s-5 11.2-11.2 11.2m0-23.7c-6.8 0-12.5 5.7-12.5 12.5S13 60.6 19.8 60.6s12.5-5.7 12.5-12.5-5.7-12.5-12.5-12.5zm2.8 16.9c1 1.1 1 3.2.6 4.2 0 0 0 .2-.2.2-.6.2-1.3.4-1.7.4 1.5-1.4 1.9-3.5 1.3-4.8zm5.7-1.4c-1.3-1.1-3-2.1-4.6-2.3 1.7.8 3.2 2.5 4 4 .2-.2.6-.8.8-1.5l-.2-.2zm.8-3s0-.2 0 0c-1-.6-1.7-.8-1.7-.8l.6-.6c-.6.4-1.3.4-1.7.4 1 .4 2.1 1 2.9 1.7-.1-.1-.1-.5-.1-.7zM24 51.5c.4 0 .8.2 1.1 0-1.5-.4-2.5-2.5-5.9-2.9-.2 0-.6 0-.4-.4.4-.4 1.7-1.3 1.7-1.3-.2 0-1.5.2-1.7.2-.4 0-.4 0-.4-.4 0 0-.8.6-.4 1h.4c.2 0 .4-.2.6-.2 0 .2-.2.4-.4.6 0 .2 0 .4.2.4.4.2 1.9.6 2.9 1.3 1 .8 3.2 2.5 3.2 5.9.6-.4 1-.8 1.3-1.1v-.2c-.2-.8-1.1-2.3-2.2-2.9zm3.6-7c-.2.6-.6.8-.8.8h-.6l-.2.1c-.2.2-.2 0-.2 0v-.2c0-.2-.2 0-.4 0s-.2-.2-.2-.2c-.8-.2-1.1.2-1.1.2.6 0 .8.4.8.6s.4.2.6 0h.2v.2c.2.2.4.2.2.4-.2.8-.4.6-.4.6-1.1-.4-2.1-.6-2.7-.6 0-.2.4-.4.4-.4-4.4 0-5.1.6-5.3.8-.2.2 0 .6 0 .6-.8.2-2.1.4-2.7 1-.6.6-.6 1.5-.6 1.9.2-.2.6-.4.8-.6.6-.2 1.3-.2 2.1-.2.4 0 .6.2.8.4.2.2-.2.2-.4.2-.8-.6-1 .4-1.9.2.2.4.6.4.8.2.8-.4 1 0 1.1.2-.6 0-1.3.4-1.7.4-.4-.2-1-.2-1-.2.4.4.8.4 1.1.4h2.1c1.7.2 1.9 1.7.8 2.7.8-.2 1.1-1 1.1-1 .6 2.7-1.9 4.2-3.8 3.6-1-.2-1.7-.6-2.3-1-.4-.4-.8-.6-1-.8 1.3.4 3.4.4 4.8-.2-2.7 0-4.4-.6-5.7-1.3-.6-.2-.6-.4-.8-.8-.4-.8-.6-1.3-1-2.3 1 1 3.2 2.1 4.4 2.3-2.7-1.5-4.2-4-4.2-4.2-.2-.2-.4-.4-.4-1 0-.8.2-1.7.6-2.3.4 1 1.1 2.7 2.1 3.4-1-2.1-1.1-4.8-1.1-5.1 0-.2 0-.4.2-.6.2-.4.8-1 1.3-1.5 0 .6-.2 2.1 0 3.6.4-2.3 1.1-4 1.9-4.8l.4-.4c.2-.2 1-.4 1.9-.6-.8.4-1.3 1.3-1.5 1.9 2.7-2.5 5.1-2.5 6.5-3 .4-.2.4.2.4.4s-.2.7-.2.7c1 .2 1.3.6 1.3.6v-.4c1.1 1.1 1.7 1.9 1.5 2.7 0 .6.4 1 .8 1.1.2.2 1.3.8 1.5 1 0-.1-.1.3-.3.5zm-5.5-5.7c-.4.2-.8.6-1 1.1 0 0 0 .2.2.2.4-.2.6-.2.6-.2 0-.2.2-.8.4-1 .1-.1.1-.3-.2-.1zm3 2.6c0 .6-.2.6-.4.6-.2-.2-.8-.2-1 0 .6.4 1 1.1 1 1.1 0-.2 0-.6-.2-.8h.6c.2 0 .2 0 .2-.2s0-.3-.2-.7zm-6.3 3.1c.2 0 .4-.2.8-.2 0 0-.2.6-.2 1.7.4 0 .8-.2 1.1-.2-.6-.2-.6-1.5-.2-2.1.2-.2 0-.2-.2-.2s-.4.2-.6.2c0 0 .2-1.7 1.5-3-1.2.6-2.4 2.5-2.2 3.8z"/>
</svg>