<svg xmlns="http://www.w3.org/2000/svg" viewBox="0 0 40 40" style="enable-background:new 0 0 40 40">
	<path d="m 31.31 24.323 c -2.35 0 -4.261 -1.939 -4.261 -4.323 s 1.912 -4.323 4.261 -4.323 s 4.261 1.939 4.261 4.323 s -1.912 4.323 -4.261 4.323 z m 0 -7.5 c -1.717 0 -3.114 1.426 -3.114 3.177 s 1.397 3.177 3.114 3.177 s 3.114 -1.426 3.114 -3.177 s -1.397 -3.177 -3.114 -3.177 z m -11.328 7.5 c -2.341 0 -4.246 -1.939 -4.246 -4.323 s 1.905 -4.323 4.246 -4.323 s 4.246 1.939 4.246 4.323 s -1.905 4.323 -4.246 4.323 z m 0 -7.5 c -1.708 0 -3.098 1.426 -3.098 3.177 s 1.39 3.177 3.098 3.177 s 3.098 -1.426 3.098 -3.177 s -1.39 -3.177 -3.098 -3.177 z m -11.313 7.5 c -2.341 0 -4.246 -1.939 -4.246 -4.323 s 1.905 -4.323 4.246 -4.323 s 4.246 1.939 4.246 4.323 s -1.905 4.323 -4.246 4.323 z m 0 -7.5 c -1.708 0 -3.098 1.426 -3.098 3.177 s 1.39 3.177 3.098 3.177 s 3.098 -1.426 3.098 -3.177 s -1.39 -3.177 -3.098 -3.177 z" style="fill:#4f4f4f"/>
</svg>