<svg xmlns="http://www.w3.org/2000/svg" viewBox="0 0 132.292 132.292" fill="#797979" >
  <path d="M66.709.004A66.146 66.146 0 00.209 60.9a66.146 66.146 0 0059.44 71.072 66.146 66.146 0 0072.185-58.082l.399-5.014A66.146 66.146 0 0070.135.118 66.146 66.146 0 0066.71.003zm-.055 6.82a59.325 59.325 0 013.066.103A59.325 59.325 0 01125.418 68.6l-.355 4.496a59.325 59.325 0 01-10.851 27.792c-5.277-11.654-14.71-21.277-26.946-26.62A27.284 27.284 0 0093.24 60.22l.164-2.068a27.284 27.284 0 00-25.615-28.364 27.284 27.284 0 00-1.413-.04 27.284 27.284 0 00-27.432 25.118A27.284 27.284 0 0045.06 74.3a52.77 52.77 0 00-26.952 26.536 59.317 59.317 0 004.447 5.473 59.325 59.325 0 01-4.447-5.472A59.325 59.325 0 017.006 61.445 59.325 59.325 0 0166.654 6.827zm-.333 29.248a20.95 20.95 0 011.086.04 20.95 20.95 0 0119.668 21.78l-.126 1.587a20.95 20.95 0 01-22.865 18.397 20.95 20.95 0 01-18.822-22.51A20.95 20.95 0 0166.32 36.072zm18.582 40.71c-.12.115-.238.228-.36.339a27.284 27.284 0 00.36-.338zm-3.038 2.521c13.035 4.727 22.918 14.906 27.53 27.356a59.325 59.325 0 01-49.075 18.527 59.325 59.325 0 01-37.422-18.49v-.004C27.544 94.146 37.5 84.005 50.472 79.32a27.284 27.284 0 0012.99 4.856 27.284 27.284 0 0018.403-4.872zm29.864 24.731a59.325 59.325 0 01-2.33 2.62 59.53 59.53 0 002.33-2.62z" paint-order="markers fill stroke"/>
</svg>