<svg x="0" y="0" width="93" height="119" viewBox="0 0 93 119" version="1.1" xmlns="http://www.w3.org/2000/svg" xmlns:xlink="http://www.w3.org/1999/xlink"
style="display: block;margin-left: auto;margin-right: auto;">
<defs>
<clipPath id="c_1"><path d="M0,0H93V119H0Z" /></clipPath>
<clipPath id="c0_1"><path d="M7.8,119.2c-2.7,0,-3.7,-.3,-4.7,-.8C2.1,117.8,1.3,117,.8,116C.3,115,0,114.1,0,111.3V7.8C0,5.1,.3,4.1,.8,3.1C1.3,2.1,2.1,1.3,3.1,.8C4.1,.3,5.1,0,7.8,0H85.4c2.7,0,3.7,.3,4.7,.8c1,.5,1.7,1.3,2.3,2.3c.5,1,.8,2,.8,4.7V111.3c0,2.8,-.3,3.7,-.8,4.7c-.6,1,-1.3,1.8,-2.3,2.4c-1,.5,-2,.8,-4.7,.8Z" /></clipPath>
<clipPath id="c1_1"><path d="M26,94.7c-4.2,0,-7.7,-3.4,-7.7,-7.6c0,-4.2,3.5,-7.7,7.7,-7.7c4.2,0,7.6,3.5,7.6,7.7c0,4.2,-3.4,7.6,-7.6,7.6Z" /></clipPath>
<clipPath id="c2_1"><path d="M83,47.2c.4,0,.8,0,1.1,-.2c.3,-.1,.4,-.3,.4,-.5c0,-.2,-.1,-.4,-.4,-.5c-.3,-.2,-.7,-.2,-1.1,-.2c-.5,0,-.9,0,-1.2,.2c-.3,.1,-.4,.3,-.4,.5c0,.2,.1,.4,.4,.5c.3,.2,.7,.2,1.2,.2Zm0,.5c-.7,0,-1.1,-.1,-1.5,-.3c-.4,-.2,-.5,-.5,-.5,-.9c0,-.4,.1,-.7,.5,-.9c.4,-.2,.8,-.3,1.5,-.3c.6,0,1,.1,1.4,.3c.4,.2,.5,.5,.5,.9c0,.4,-.1,.7,-.5,.9c-.4,.2,-.8,.3,-1.4,.3Zm0,-3.2c.4,0,.8,-.1,1.1,-.2c.3,-.1,.4,-.3,.4,-.5c0,-.2,-.1,-.4,-.4,-.6c-.3,-.1,-.7,-.1,-1.1,-.1c-.5,0,-.9,0,-1.2,.1c-.3,.2,-.4,.4,-.4,.6c0,.2,.1,.4,.4,.5c.3,.1,.7,.2,1.2,.2Zm0,.5c-.7,0,-1.1,-.1,-1.5,-.3c-.4,-.2,-.5,-.5,-.5,-.9c0,-.4,.1,-.7,.5,-.9c.4,-.2,.8,-.3,1.5,-.3c.6,0,1,.1,1.4,.3c.4,.2,.5,.5,.5,.9c0,.4,-.1,.7,-.5,.9C84,44.9,83.6,45,83,45Zm0,-3.2c.4,0,.8,-.1,1.1,-.2c.3,-.1,.4,-.3,.4,-.5c0,-.3,-.1,-.5,-.4,-.6c-.3,-.1,-.7,-.2,-1.1,-.2c-.5,0,-.9,.1,-1.2,.2c-.3,.1,-.4,.3,-.4,.6c0,.2,.1,.4,.4,.5c.3,.1,.7,.2,1.2,.2Zm0,.5c-.7,0,-1.1,-.1,-1.5,-.4c-.4,-.2,-.5,-.5,-.5,-.8c0,-.4,.1,-.7,.5,-.9c.4,-.3,.8,-.4,1.5,-.4c.6,0,1,.1,1.4,.4c.4,.2,.5,.5,.5,.9c0,.3,-.1,.6,-.5,.8c-.4,.3,-.8,.4,-1.4,.4Zm0,-3.2c.4,0,.8,-.1,1.1,-.2c.3,-.2,.4,-.3,.4,-.6c0,-.2,-.1,-.4,-.4,-.5c-.3,-.1,-.7,-.2,-1.1,-.2c-.5,0,-.9,.1,-1.2,.2c-.3,.1,-.4,.3,-.4,.5c0,.3,.1,.4,.4,.6c.3,.1,.7,.2,1.2,.2Zm0,.4c-.7,0,-1.1,-.1,-1.5,-.3C81.1,39,81,38.7,81,38.3c0,-.3,.1,-.6,.5,-.9c.4,-.2,.8,-.3,1.5,-.3c.6,0,1,.1,1.4,.3c.4,.3,.5,.6,.5,.9c0,.4,-.1,.7,-.5,.9c-.4,.2,-.8,.3,-1.4,.3Zm0,-3.2c.4,0,.8,0,1.1,-.2c.3,-.1,.4,-.3,.4,-.5c0,-.2,-.1,-.4,-.4,-.5c-.3,-.2,-.7,-.2,-1.1,-.2c-.5,0,-.9,0,-1.2,.2c-.3,.1,-.4,.3,-.4,.5c0,.2,.1,.4,.4,.5c.3,.2,.7,.2,1.2,.2Zm0,.5c-.7,0,-1.1,-.1,-1.5,-.3C81.1,36.3,81,36,81,35.6c0,-.4,.1,-.7,.5,-.9c.4,-.2,.8,-.3,1.5,-.3c.6,0,1,.1,1.4,.3c.4,.2,.5,.5,.5,.9c0,.4,-.1,.7,-.5,.9c-.4,.2,-.8,.3,-1.4,.3Zm0,-3.2c.4,0,.8,-.1,1.1,-.2c.3,-.1,.4,-.3,.4,-.5c0,-.3,-.1,-.4,-.4,-.6c-.3,-.1,-.7,-.2,-1.1,-.2c-.5,0,-.9,.1,-1.2,.2c-.3,.2,-.4,.3,-.4,.6c0,.2,.1,.4,.4,.5c.3,.1,.7,.2,1.2,.2Zm0,.5c-.7,0,-1.1,-.1,-1.5,-.3c-.4,-.3,-.5,-.6,-.5,-.9c0,-.4,.1,-.7,.5,-.9c.4,-.2,.8,-.4,1.5,-.4c.6,0,1,.2,1.4,.4c.4,.2,.5,.5,.5,.9c0,.3,-.1,.6,-.5,.9c-.4,.2,-.8,.3,-1.4,.3Zm0,-6c.4,0,.8,0,1.1,-.2c.3,-.1,.4,-.3,.4,-.5c0,-.2,-.1,-.4,-.4,-.5c-.3,-.1,-.7,-.2,-1.1,-.2c-.5,0,-.9,.1,-1.2,.2c-.3,.1,-.4,.3,-.4,.5c0,.2,.1,.4,.4,.5c.3,.2,.7,.2,1.2,.2Zm0,.5c-.7,0,-1.1,-.1,-1.5,-.3c-.4,-.2,-.5,-.5,-.5,-.9c0,-.4,.1,-.7,.5,-.9c.4,-.2,.8,-.3,1.5,-.3c.6,0,1,.1,1.4,.3c.4,.2,.5,.5,.5,.9c0,.4,-.1,.7,-.5,.9c-.4,.2,-.8,.3,-1.4,.3Zm0,-3.2c.4,0,.8,-.1,1.1,-.2c.3,-.1,.4,-.3,.4,-.5c0,-.2,-.1,-.4,-.4,-.6C83.8,24,83.4,24,83,24c-.5,0,-.9,0,-1.2,.1c-.3,.2,-.4,.4,-.4,.6c0,.2,.1,.4,.4,.5c.3,.1,.7,.2,1.2,.2Zm0,.5c-.7,0,-1.1,-.1,-1.5,-.3c-.4,-.2,-.5,-.5,-.5,-.9c0,-.4,.1,-.7,.5,-.9c.4,-.2,.8,-.3,1.5,-.3c.6,0,1,.1,1.4,.3c.4,.2,.5,.5,.5,.9c0,.4,-.1,.7,-.5,.9c-.4,.2,-.8,.3,-1.4,.3ZM83,20c.4,0,.8,-.1,1.1,-.2c.3,-.2,.4,-.3,.4,-.6c0,-.2,-.1,-.4,-.4,-.5c-.3,-.1,-.7,-.2,-1.1,-.2c-.5,0,-.9,.1,-1.2,.2c-.3,.1,-.4,.3,-.4,.5c0,.3,.1,.4,.4,.6c.3,.1,.7,.2,1.2,.2Zm0,.4c-.7,0,-1.1,-.1,-1.5,-.3c-.4,-.2,-.5,-.5,-.5,-.9c0,-.3,.1,-.6,.5,-.9c.4,-.2,.8,-.3,1.5,-.3c.6,0,1,.1,1.4,.3c.4,.3,.5,.6,.5,.9c0,.4,-.1,.7,-.5,.9c-.4,.2,-.8,.3,-1.4,.3Zm0,-3.2c.4,0,.8,0,1.1,-.2c.3,-.1,.4,-.3,.4,-.5c0,-.2,-.1,-.4,-.4,-.5c-.3,-.2,-.7,-.2,-1.1,-.2c-.5,0,-.9,0,-1.2,.2c-.3,.1,-.4,.3,-.4,.5c0,.2,.1,.4,.4,.5c.3,.2,.7,.2,1.2,.2Zm0,.5c-.7,0,-1.1,-.1,-1.5,-.3c-.4,-.2,-.5,-.5,-.5,-.9c0,-.4,.1,-.7,.5,-.9c.4,-.2,.8,-.3,1.5,-.3c.6,0,1,.1,1.4,.3c.4,.2,.5,.5,.5,.9c0,.4,-.1,.7,-.5,.9c-.4,.2,-.8,.3,-1.4,.3Z" /></clipPath>
<clipPath id="c3_1"><path d="M83,103.8c.4,0,.8,-.1,1.1,-.2c.3,-.2,.4,-.3,.4,-.6c0,-.2,-.1,-.4,-.4,-.5c-.3,-.1,-.7,-.2,-1.1,-.2c-.5,0,-.9,.1,-1.2,.2c-.3,.1,-.4,.3,-.4,.5c0,.3,.1,.4,.4,.6c.3,.1,.7,.2,1.2,.2Zm0,.5c-.7,0,-1.1,-.1,-1.5,-.4c-.4,-.2,-.5,-.5,-.5,-.9c0,-.3,.1,-.6,.5,-.9c.4,-.2,.8,-.3,1.5,-.3c.6,0,1,.1,1.4,.3c.4,.3,.5,.6,.5,.9c0,.4,-.1,.7,-.5,.9c-.4,.3,-.8,.4,-1.4,.4ZM83,101c.4,0,.8,0,1.1,-.2c.3,-.1,.4,-.3,.4,-.5c0,-.2,-.1,-.4,-.4,-.5c-.3,-.2,-.7,-.2,-1.1,-.2c-.5,0,-.9,0,-1.2,.2c-.3,.1,-.4,.3,-.4,.5c0,.2,.1,.4,.4,.5c.3,.2,.7,.2,1.2,.2Zm0,.5c-.7,0,-1.1,-.1,-1.5,-.3c-.4,-.2,-.5,-.5,-.5,-.9c0,-.4,.1,-.7,.5,-.9c.4,-.2,.8,-.3,1.5,-.3c.6,0,1,.1,1.4,.3c.4,.2,.5,.5,.5,.9c0,.4,-.1,.7,-.5,.9c-.4,.2,-.8,.3,-1.4,.3Zm0,-3.2c.4,0,.8,-.1,1.1,-.2c.3,-.1,.4,-.3,.4,-.5c0,-.2,-.1,-.4,-.4,-.6c-.3,-.1,-.7,-.1,-1.1,-.1c-.5,0,-.9,0,-1.2,.1c-.3,.2,-.4,.4,-.4,.6c0,.2,.1,.4,.4,.5c.3,.1,.7,.2,1.2,.2Zm0,.5c-.7,0,-1.1,-.1,-1.5,-.3C81.1,98.3,81,98,81,97.6c0,-.4,.1,-.7,.5,-.9c.4,-.2,.8,-.3,1.5,-.3c.6,0,1,.1,1.4,.3c.4,.2,.5,.5,.5,.9c0,.4,-.1,.7,-.5,.9c-.4,.2,-.8,.3,-1.4,.3Zm0,-3.2c.4,0,.8,-.1,1.1,-.2c.3,-.1,.4,-.3,.4,-.5c0,-.3,-.1,-.5,-.4,-.6c-.3,-.1,-.7,-.2,-1.1,-.2c-.5,0,-.9,.1,-1.2,.2c-.3,.1,-.4,.3,-.4,.6c0,.2,.1,.4,.4,.5c.3,.1,.7,.2,1.2,.2Zm0,.5c-.7,0,-1.1,-.1,-1.5,-.4c-.4,-.2,-.5,-.5,-.5,-.8c0,-.4,.1,-.7,.5,-.9c.4,-.3,.8,-.4,1.5,-.4c.6,0,1,.1,1.4,.4c.4,.2,.5,.5,.5,.9c0,.3,-.1,.6,-.5,.8c-.4,.3,-.8,.4,-1.4,.4Zm0,-3.2c.4,0,.8,-.1,1.1,-.2c.3,-.2,.4,-.3,.4,-.6c0,-.2,-.1,-.4,-.4,-.5c-.3,-.1,-.7,-.2,-1.1,-.2c-.5,0,-.9,.1,-1.2,.2c-.3,.1,-.4,.3,-.4,.5c0,.3,.1,.4,.4,.6c.3,.1,.7,.2,1.2,.2Zm0,.4c-.7,0,-1.1,-.1,-1.5,-.3c-.4,-.2,-.5,-.5,-.5,-.9c0,-.3,.1,-.6,.5,-.9c.4,-.2,.8,-.3,1.5,-.3c.6,0,1,.1,1.4,.3c.4,.3,.5,.6,.5,.9c0,.4,-.1,.7,-.5,.9c-.4,.2,-.8,.3,-1.4,.3Zm0,-3.2c.4,0,.8,0,1.1,-.2c.3,-.1,.4,-.3,.4,-.5c0,-.2,-.1,-.4,-.4,-.5c-.3,-.2,-.7,-.2,-1.1,-.2c-.5,0,-.9,0,-1.2,.2c-.3,.1,-.4,.3,-.4,.5c0,.2,.1,.4,.4,.5c.3,.2,.7,.2,1.2,.2Zm0,.5c-.7,0,-1.1,-.1,-1.5,-.3c-.4,-.2,-.5,-.5,-.5,-.9c0,-.4,.1,-.7,.5,-.9c.4,-.2,.8,-.3,1.5,-.3c.6,0,1,.1,1.4,.3c.4,.2,.5,.5,.5,.9c0,.4,-.1,.7,-.5,.9c-.4,.2,-.8,.3,-1.4,.3Zm0,-5.9c.4,0,.8,-.1,1.1,-.2c.3,-.2,.4,-.3,.4,-.6c0,-.2,-.1,-.4,-.4,-.5c-.3,-.1,-.7,-.2,-1.1,-.2c-.5,0,-.9,.1,-1.2,.2c-.3,.1,-.4,.3,-.4,.5c0,.3,.1,.4,.4,.6c.3,.1,.7,.2,1.2,.2Zm0,.5c-.7,0,-1.1,-.1,-1.5,-.4c-.4,-.2,-.5,-.5,-.5,-.9c0,-.3,.1,-.6,.5,-.9c.4,-.2,.8,-.3,1.5,-.3c.6,0,1,.1,1.4,.3c.4,.3,.5,.6,.5,.9c0,.4,-.1,.7,-.5,.9c-.4,.3,-.8,.4,-1.4,.4Zm0,-3.3c.4,0,.8,0,1.1,-.2c.3,-.1,.4,-.3,.4,-.5c0,-.2,-.1,-.4,-.4,-.5c-.3,-.2,-.7,-.2,-1.1,-.2c-.5,0,-.9,0,-1.2,.2c-.3,.1,-.4,.3,-.4,.5c0,.2,.1,.4,.4,.5c.3,.2,.7,.2,1.2,.2Zm0,.5c-.7,0,-1.1,-.1,-1.5,-.3c-.4,-.2,-.5,-.5,-.5,-.9c0,-.4,.1,-.7,.5,-.9c.4,-.2,.8,-.3,1.5,-.3c.6,0,1,.1,1.4,.3c.4,.2,.5,.5,.5,.9c0,.4,-.1,.7,-.5,.9c-.4,.2,-.8,.3,-1.4,.3Zm0,-5.9c.4,0,.8,-.1,1.1,-.2c.3,-.1,.4,-.3,.4,-.5c0,-.3,-.1,-.5,-.4,-.6C83.8,75.1,83.4,75,83,75c-.5,0,-.9,.1,-1.2,.2c-.3,.1,-.4,.3,-.4,.6c0,.2,.1,.4,.4,.5c.3,.1,.7,.2,1.2,.2Zm0,.5c-.7,0,-1.1,-.1,-1.5,-.4c-.4,-.2,-.5,-.5,-.5,-.8c0,-.4,.1,-.7,.5,-.9c.4,-.3,.8,-.4,1.5,-.4c.6,0,1,.1,1.4,.4c.4,.2,.5,.5,.5,.9c0,.3,-.1,.6,-.5,.8C84,76.9,83.6,77,83,77Zm0,-3.2c.4,0,.8,-.1,1.1,-.2c.3,-.2,.4,-.3,.4,-.6c0,-.2,-.1,-.4,-.4,-.5c-.3,-.1,-.7,-.2,-1.1,-.2c-.5,0,-.9,.1,-1.2,.2c-.3,.1,-.4,.3,-.4,.5c0,.3,.1,.4,.4,.6c.3,.1,.7,.2,1.2,.2Zm0,.4c-.7,0,-1.1,-.1,-1.5,-.3C81.1,73.7,81,73.4,81,73c0,-.3,.1,-.6,.5,-.9c.4,-.2,.8,-.3,1.5,-.3c.6,0,1,.1,1.4,.3c.4,.3,.5,.6,.5,.9c0,.4,-.1,.7,-.5,.9c-.4,.2,-.8,.3,-1.4,.3Z" /></clipPath>
<clipPath id="c4_1"><path d="M14.5,15.3c-1.3,0,-2.3,-1,-2.3,-2.3c0,-1.3,1,-2.3,2.3,-2.3H72.6c1.2,0,2.3,1,2.3,2.3c0,1.3,-1.1,2.3,-2.3,2.3Z" /></clipPath>
<clipPath id="c5_1"><path d="M14.5,24.4c-1.3,0,-2.3,-1,-2.3,-2.2c0,-1.3,1,-2.3,2.3,-2.3H49.7c1.2,0,2.2,1,2.2,2.3c0,1.2,-1,2.2,-2.2,2.2Z" /></clipPath>
<clipPath id="c6_1"><path d="M51.2,44.3c-1.3,0,-2.3,-1,-2.3,-2.3c0,-1.3,1,-2.3,2.3,-2.3H72.6c1.2,0,2.3,1,2.3,2.3c0,1.3,-1.1,2.3,-2.3,2.3Z" /></clipPath>
<clipPath id="c7_1"><path d="M51.2,51.9c-1.3,0,-2.3,-1,-2.3,-2.2c0,-1.3,1,-2.3,2.3,-2.3H72.6c1.2,0,2.3,1,2.3,2.3c0,1.2,-1.1,2.2,-2.3,2.2Z" /></clipPath>
<clipPath id="c8_1"><path d="M51.2,76.4c-1.3,0,-2.3,-1,-2.3,-2.3c0,-1.3,1,-2.3,2.3,-2.3H72.6c1.2,0,2.3,1,2.3,2.3c0,1.3,-1.1,2.3,-2.3,2.3Z" /></clipPath>
<clipPath id="c9_1"><path d="M51.2,85.6c-1.3,0,-2.3,-1.1,-2.3,-2.3c0,-1.3,1,-2.3,2.3,-2.3H72.6c1.2,0,2.3,1,2.3,2.3c0,1.2,-1.1,2.3,-2.3,2.3Z" /></clipPath>
<clipPath id="c10_1"><path d="M51.2,94.7c-1.3,0,-2.3,-1,-2.3,-2.3c0,-1.2,1,-2.3,2.3,-2.3H72.6c1.2,0,2.3,1.1,2.3,2.3c0,1.3,-1.1,2.3,-2.3,2.3Z" /></clipPath>
<clipPath id="c11_1"><path d="M14.5,33.6c-1.3,0,-2.3,-1,-2.3,-2.3c0,-1.2,1,-2.3,2.3,-2.3H61.9c1.2,0,2.3,1.1,2.3,2.3c0,1.3,-1.1,2.3,-2.3,2.3Z" /></clipPath>

</defs>
<g clip-path="url(#c_1)">
<path d="M0,0
L0,119
L93,119
L93,0 Z " 
fill="#FFFFFF" stroke="none" />
<g clip-path="url(#c0_1)">
<path d="M7.8,0H85.4c2.7,0,3.7,.3,4.7,.8c1,.5,1.7,1.3,2.3,2.3c.5,1,.8,2,.8,4.7V111.3c0,2.8,-.3,3.7,-.8,4.7c-.6,1,-1.3,1.8,-2.3,2.4c-1,.5,-2,.8,-4.7,.8H7.8c-2.7,0,-3.7,-.3,-4.7,-.8C2.1,117.8,1.3,117,.8,116C.3,115,0,114.1,0,111.3V7.8C0,5.1,.3,4.1,.8,3.1C1.3,2.1,2.1,1.3,3.1,.8C4.1,.3,5.1,0,7.8,0Z" class="g0_1" />
</g>
<path d="M2.3,60.3H90.9" class="g1_1" />
<path d="M12.2,71.8H39.7v33.6H12.2V71.8Z" class="g2_1" />
<g clip-path="url(#c1_1)">
<path d="M26,79.4v0c4.2,0,7.6,3.5,7.6,7.7c0,4.2,-3.4,7.6,-7.6,7.6c-4.2,0,-7.7,-3.4,-7.7,-7.6c0,-4.2,3.5,-7.7,7.7,-7.7Z" class="g2_1" />
</g>
<path d="M21.8,92.6c-3.8,1.7,-6.5,5.8,-6.5,10.5c0,.6,0,1.1,.1,1.6m21.2,.1c0,-.6,.1,-1.1,.1,-1.7C36.7,98.4,34,94.3,30.1,92.6" class="g3_1" />
<g clip-path="url(#c2_1)">
<path d="M73.3,55.4H92.6V7.6H73.3V55.4Z" class="g4_1" />
</g>
<g clip-path="url(#c3_1)">
<path d="M73.3,111.9H92.6V64.2H73.3v47.7Z" class="g4_1" />
</g>
<g clip-path="url(#c4_1)">
<path d="M4.6,22.9H82.5V3.1H4.6V22.9Z" class="g5_1" />
</g>
<g clip-path="url(#c5_1)">
<path d="M4.6,32.1h55V12.2H4.6V32.1Z" class="g5_1" />
</g>
<g clip-path="url(#c6_1)">
<path d="M41.3,51.9H82.5V32.1H41.3V51.9Z" class="g5_1" />
</g>
<g clip-path="url(#c7_1)">
<path d="M41.3,59.6H82.5V39.7H41.3V59.6Z" class="g5_1" />
</g>
<g clip-path="url(#c8_1)">
<path d="M41.3,84H82.5V64.2H41.3V84Z" class="g5_1" />
</g>
<g clip-path="url(#c9_1)">
<path d="M41.3,93.2H82.5V73.3H41.3V93.2Z" class="g5_1" />
</g>
<g clip-path="url(#c10_1)">
<path d="M41.3,102.4H82.5V82.5H41.3v19.9Z" class="g5_1" />
</g>
<g clip-path="url(#c11_1)">
<path d="M4.6,41.3H71.8V21.4H4.6V41.3Z" class="g5_1" />
</g>

</g>
</svg>
