<svg xmlns="http://www.w3.org/2000/svg" viewBox="3.2 44 93.6 11.2">
  <path fill="#333" d="M25.7 51.3c-.8 0-1.1-.6-1.1-1.5s.4-1.5 1.2-1.5c.5 0 .8.2 1 .4l.4-.8c-.1.1-.2.1-.3.1-.3 0-.5-.1-1-.1-1.2 0-2 .9-2 2 0 1.3.8 2 1.8 2 .8 0 1.2-.2 1.6-.7l-.2-.4c-.5.2-.9.5-1.4.5zm8.7-.2l-1.2-1.5 1.1-1.1c.2-.2.4-.4.7-.6h-1.2c0 .2 0 .3-.3.5l-1.3 1.4v-1.4c0-.3 0-.4.1-.5h-1.2c.1.2.1.3.1.5v2.7c0 .3 0 .4-.1.5h1.2c-.1-.2-.1-.3-.1-.5v-1.4l1.2 1.4c.1.2.2.3.2.5h1.5c-.3 0-.4-.1-.7-.5zm-5.1.2c-.8 0-1.1-.6-1.1-1.5s.4-1.5 1.2-1.5c.5 0 .8.2 1 .4l.4-.8c-.1.1-.2.1-.3.1-.3 0-.5-.1-1-.1-1.2 0-2 .9-2 2 0 1.3.8 2 1.8 2 .8 0 1.2-.2 1.6-.7l-.2-.4c-.4.2-.9.5-1.4.5zm-6.7-2.8l-.8 2-.9-2c-.1-.2-.1-.4 0-.6h-1.4c.1.1.3.3.4.6l1.4 3.1c-.2.4-.4.6-.8.6s-.6-.2-.8-.5l-.3.5c.3.3.6.4 1 .4.9 0 1.3-.7 1.6-1.4l1.1-2.8c.1-.3.2-.4.3-.6h-1c.4.3.3.5.2.7zm-5-1.2H16c.1.2.1.3.1.5v3.4c0 .3 0 .4-.1.5h1.2c-.1-.2-.1-.3-.1-.5v-.8h.6c1.2 0 1.9-.6 1.9-1.6-.1-1-.8-1.5-2-1.5zm-.1 2.5H17v-2h.4c.7 0 1 .4 1 1 .1.7-.3 1-.9 1zm78.9-2.1c.1 0 .1-.1.1-.1v-.1h-.4v.5h.1v-.3h.2v.2h.1l-.1-.2c.1 0 .1 0 0 0zm-.1-.1l-.1-.2h.1s.1 0 0 .2c.1 0 .1 0 0 0zm0-.4c-.3 0-.5.2-.5.5s.2.5.5.5.5-.2.5-.5-.2-.5-.5-.5zm0 .8c-.2 0-.4-.2-.4-.4s.2-.4.4-.4.4.2.4.4c0 .3-.2.4-.4.4zm-15.6 1.4h-.4v-1h.9c.3 0 .4.1.5.2l.3-.6h-2.8c.1.2.1.3.1.5v2.7c0 .3 0 .4-.1.5h1.4c.9 0 1.6-.3 1.6-1.2 0-.8-.6-1.1-1.5-1.1zm-.1 1.9h-.3v-1.4h.3c.5 0 .8.2.8.7s-.3.7-.8.7zm-41.5-3.4h-1.2c.1.2.1.3.1.5v.1l-1.6 1.8v-1.9c0-.3 0-.4.1-.5h-1.2c.1.2.1.3.1.5v2.7c0 .3 0 .4-.1.5h1.2c-.1-.2-.1-.3-.1-.5V51l1.6-1.7v1.9c0 .3 0 .4-.1.5h1.2c-.1-.2-.1-.3-.1-.5v-2.8c-.1-.2 0-.3.1-.5zm2.6-.3c.5 0 .7-.2.7-.5 0-.1-.1-.3-.2-.4h-.4c.2.2.2.3.2.3 0 .1-.1.2-.3.2s-.3-.1-.3-.2 0-.2.1-.3h-.4c-.1.1-.2.2-.2.4 0 .3.3.5.8.5zm49.1.3h-1.2c.1.2.1.3.1.5v1.1h-1.6v-1.1c0-.3 0-.4.1-.5H87c.1.2.1.3.1.5v2.7c0 .3 0 .4-.1.5h1.2c-.1-.2-.1-.3-.1-.5v-1.2h1.6v1.2c0 .3 0 .4-.1.5h1.2c-.1-.2-.1-.3-.1-.5v-2.7c0-.2 0-.3.1-.5zm-5.9 0h-1.1c.1.2.2.2.3.4l-1.2 2.9c-.1.2-.2.4-.4.6h.9c-.1-.2-.1-.3 0-.6l.1-.2h1.7l.1.2c.1.3.1.4 0 .6h1.4c-.2-.2-.3-.3-.4-.6l-1.4-3.3zm-1.2 2.5l.7-1.6.6 1.6h-1.3zm-18.6.4v-2.4c0-.3 0-.4.1-.5h-3c.1.2.1.3.1.5v1.5c0 .7-.1 1.2-.8 1.5v.7c.4-.3.6-.4 1-.4h2c.4 0 .6.1 1 .4v-.7c-.3 0-.4-.3-.4-.6zm-.9.2c0 .1 0 .2-.2.2h-1.3c.2-.3.3-.7.3-1.2v-1.4c0-.1 0-.2.1-.2h1l.1 2.6zm4-3.1h-1.1c.1.2.2.2.3.4l-1.2 2.9c-.1.2-.2.4-.4.6h.9c-.1-.2-.1-.3 0-.6l.1-.2h1.7l.1.2c.1.3.1.4 0 .6H70c-.2-.2-.3-.3-.4-.6l-1.4-3.3zM67 50.4l.7-1.6.6 1.6H67zm6.6-1.8c.2-.2.4-.2.8-.2h.6v2.8c0 .3 0 .4-.1.5H76c-.1-.2-.1-.3-.1-.5v-2.8h.6c.3 0 .4.1.5.2l.3-.7h-3.5l-.2.7zm-30.1-.7h-1.2c.1.2.1.3.1.5v.1l-1.6 1.8v-1.9c0-.3 0-.4.1-.5h-1.2c.1.2.1.3.1.5v2.7c0 .3 0 .4-.1.5H41c-.1-.2-.1-.3-.1-.5V51l1.6-1.8v1.9c0 .3 0 .4-.1.5h1.2c-.1-.2-.1-.3-.1-.5v-2.7c-.1-.2-.1-.3 0-.5zm28.3 0h-1.5c.1.2.1.3.1.5v2.7c0 .3 0 .4-.1.5h1.2c-.1-.2-.1-.3-.1-.5v-.6h.5c1.1 0 1.7-.5 1.7-1.4-.1-.8-.7-1.2-1.8-1.2zm-.2 2.2h-.3v-1.7h.3c.6 0 .9.3.9.8.1.6-.3.9-.9.9zm-23.4 1.2c-1 0-1.4-.7-1.4-1.8s.5-1.8 1.4-1.8c.4 0 .8.2 1.1.5l.5-1c-.1.1-.3.2-.4.2-.4 0-.6-.1-1.3-.1-1.4 0-2.4 1-2.4 2.3 0 1.4.9 2.3 2.2 2.3.9 0 1.3-.3 1.8-.7l-.2-.4c-.3.2-.8.5-1.3.5zm4.4-2.9c.3 0 .4.1.5.2l.3-.7H50l-.3.7c.3-.2.5-.2.8-.2h.6v2.8c0 .3 0 .4-.1.5h1.2c-.2-.1-.2-.2-.2-.5v-2.8h.6zm42.2 2.7l-1.2-1.5 1.1-1.1c.2-.2.4-.4.7-.6h-1.2c0 .2 0 .3-.3.5l-1.3 1.4v-1.4c0-.3 0-.4.1-.5h-1.2c.1.2.1.3.1.5v2.7c0 .3 0 .4-.1.5h1.2c-.1-.2-.1-.3-.1-.5v-1.4l1.2 1.4c.2.3.2.5.2.6h1.5c-.3-.1-.4-.2-.7-.6zm-39.4-3.2h-1.1c.1.2.2.2.3.4l-1.2 2.9c-.1.2-.2.4-.4.6h.9c-.1-.2-.1-.3 0-.6l.1-.2h1.7l.1.2c.1.3.1.4 0 .6h1.4c-.2-.2-.3-.3-.4-.6l-1.4-3.3zm-1.2 2.5l.7-1.6.6 1.6h-1.3zm7-2.5H60c.1.2.1.3.1.5v1.1h-1.6v-1.1c0-.3 0-.4.1-.5h-1.2c.1.2.1.3.1.5v2.7c0 .3 0 .4-.1.5h1.2c-.1-.2-.1-.3-.1-.5v-1.2h1.6v1.2c0 .3 0 .4-.1.5h1.2c-.1-.2-.1-.3-.1-.5v-2.7c0-.2 0-.3.1-.5zM9.4 53.7c.2 0 .5-.1.7-.2.1 0 .1-.1.1-.1.2-.4.2-1.4-.2-1.9.2.6.1 1.5-.6 2.2zm1.3-2.6c.2 0 .4.1.5 0-.7-.2-1.1-1.1-2.6-1.3-.1 0-.2 0-.1-.1s.7-.6.7-.6c-.1 0-.6 0-.8.1-.2 0-.2 0-.2-.1 0 0-.3.3-.2.4h.2c0-.1.1-.1.2-.1 0 .1-.1.2-.1.3 0 .1 0 .1.1.2.1 0 .9.3 1.3.6s1.5 1.1 1.4 2.6c.2-.2.5-.4.6-.5v-.1c-.2-.5-.6-1.1-1-1.4zm.7-4.3c0-.3-.2-.7-.7-1.2v.1s-.2-.2-.6-.3c0 0 0-.2.1-.3 0-.1-.1-.2-.2-.1-.6.4-1.7.4-2.9 1.5.1-.2.4-.7.7-.9-.4 0-.7.2-.8.2l-.2.2c-.3.3-.6 1.1-.8 2.1-.1-.6 0-1.3 0-1.6-.2.2-.5.5-.6.7-.1.1-.1.1-.1.2 0 .2.1 1.4.5 2.3-.4-.3-.8-1.1-1-1.5-.1.3-.2.8-.2 1.1 0 .2.1.3.1.4.1.1.7 1.2 1.9 1.9-.5 0-1.5-.6-1.9-1 .1.4.2.7.4 1 .1.1.1.2.4.3.5.3 1.3.6 2.5.6-.6.3-1.5.3-2.1.1.1 0 .2.2.4.3.2.2.6.4 1 .5.9.2 2-.4 1.7-1.6 0 0-.1.4-.5.5.5-.5.5-1.3-.3-1.3h-1s-.4 0-.5-.2c0 0 .2 0 .4-.1.2 0 .5-.2.8-.2 0 0-.1-.2-.5 0-.1 0-.2 0-.4-.1.4.1.5-.3.8-.1.1 0 .2.1.1 0 0-.1-.1-.2-.3-.2-.4 0-.7 0-1 .1-.1.1-.3.1-.4.3 0-.2 0-.6.3-.9.5-.2 1.1-.3 1.3-.4 0 0-.1-.1 0-.2s.4-.4 2.4-.4l-.2.2c.3 0 .7.1 1.2.3 0 0 .1 0 .3-.2 0-.1 0-.1-.1-.1v-.1c0-.1 0 0-.1 0h-.2c0-.1-.1-.2-.4-.3 0 0 .2-.2.5-.1 0 0 0 .1.1.1s.1-.1.1 0v.1s0 .1.1 0l.1-.1h.3c.1 0 .2-.1.3-.4.1-.1.2-.2.1-.2-.1-.1-.5-.3-.6-.4-.1-.2-.3-.3-.3-.6zm-2.5.7c.1 0 .2 0 0 0-.1.4-.1.9.2 1h-.5c0-.5.1-.8.1-.8-.1 0-.2.1-.3.1 0-.5.4-1.4 1-1.7-.7.8-.7 1.5-.7 1.5.1 0 .1-.1.2-.1zm.8-1.6s-.2 0-.3.1c-.1 0-.1 0-.1-.1l.5-.5h.1c0 .1-.2.3-.2.5zm1.5 1.1c0 .1 0 .1-.1.1h-.2c0 .1.1.2.1.3 0 0-.2-.3-.4-.5h.4c.1 0 .1 0 .2-.3v.4zm-.7 2.9c.7.3 1.4 1.1 1.8 1.8.1-.1.2-.4.3-.7v-.1c-.6-.5-1.4-.8-2.1-1zM8.8 44c-3.1 0-5.6 2.5-5.6 5.6 0 3.1 2.5 5.6 5.6 5.6s5.6-2.5 5.6-5.6c0-3.1-2.6-5.6-5.6-5.6zm0 10.6c-2.8 0-5-2.2-5-5s2.2-5 5-5 5 2.2 5 5c0 2.7-2.3 5-5 5zm3.6-5.6c-.3.1-.6.2-.8.2.4.2.9.4 1.3.8v-.5c-.4-.2-.7-.2-.7-.2.1-.1.2-.2.2-.3z"/>
</svg>