<svg height="496pt" viewBox="-32 0 496 496" width="496pt" 
  xmlns="http://www.w3.org/2000/svg">
  <path d="M400 160V80h-32V0H0v456c0 22.055 17.945 40 40 40h352c22.055 0 40-17.945 40-40V160zM40 480c-13.23 0-24-10.77-24-24V16h336v440c0 9 2.984 17.313 8.016 24zm376-24c0 13.23-10.77 24-24 24s-24-10.77-24-24V96h16v336h16V176h16zm0 0"/>
  <path d="M384 448h16v16h-16zm0 0M274.984 369.672L248 361.969v-2.137c9.969-7.512 16-19.328 16-31.832v-14.625c0-21.168-15.855-39.254-36.105-41.184-11.208-1.101-22.48 2.641-30.797 10.2A40.12 40.12 0 00184 312v16c0 12.504 6.031 24.32 16 31.832v2.137l-26.992 7.703C155.93 374.559 144 390.375 144 408.145V432h160v-23.855c0-17.77-11.93-33.586-29.016-38.473zM288 416H160v-7.855c0-10.657 7.16-20.153 17.406-23.083L216 374.033V350.96l-3.977-2.313C204.496 344.266 200 336.543 200 328v-16a24.075 24.075 0 017.855-17.77c5.067-4.605 11.586-6.742 18.52-6.125 12.129 1.16 21.625 12.262 21.625 25.27V328c0 8.543-4.496 16.266-12.023 20.648L232 350.961v23.07l38.586 11.031C280.84 387.993 288 397.488 288 408.145zm0 0"/>
  <path d="M112 464h224V240H112zm16-208h192v192H128zm0 0M128 224c52.938 0 96-43.063 96-96s-43.063-96-96-96-96 43.063-96 96 43.063 96 96 96zm0-16c-32.625 0-60.703-19.664-73.145-47.734 9.641.656 18.657 4.55 25.551 11.445l1.656 1.656C88.91 180.223 98.023 184 107.72 184 127.727 184 144 167.727 144 147.719V140c0-15.441-12.559-28-28-28-6.617 0-12-5.383-12-12V88c0-11.48-3.703-22.793-10.305-32.16 8.274-3.953 17.29-6.567 26.825-7.457-.223 1.808-.52 3.625-.52 5.441 0 14 6.266 27.047 17.2 35.793l13.632 10.895A24.307 24.307 0 01160 119.574c0 22.29 18.137 40.426 40.426 40.426.285 0 .59-.055.879-.063C188.945 188.191 160.754 208 128 208zm80-80c0 5.29-.543 10.457-1.527 15.465-2.032.32-4.059.535-6.047.535C186.953 144 176 133.047 176 119.574c0-12.336-5.52-23.84-15.168-31.558l-13.633-10.903C140.08 71.426 136 62.93 136 53.824c0-1.777.176-3.558.527-5.351C176.641 52.743 208 86.77 208 128zM80.062 64.105C85.177 70.961 88 79.441 88 88v12c0 15.441 12.559 28 28 28 6.617 0 12 5.383 12 12v7.719c0 11.176-9.105 20.281-20.281 20.281-5.422 0-10.512-2.113-14.344-5.938l-1.656-1.656C81.145 149.832 67.079 144 52.12 144c-.824 0-1.68-.113-2.547-.238A80.095 80.095 0 0148 128c0-26.121 12.64-49.281 32.063-63.895zm0 0M240 32h96v16h-96zm0 0M240 64h16v16h-16zm0 0M272 64h64v16h-64zm0 0M240 96h96v16h-96zm0 0M240 128h96v16h-96zm0 0M240 160h64v16h-64zm0 0M320 160h16v16h-16zm0 0M32 440h64v16H32zm0 0M32 408h64v16H32zm0 0M32 376h64v16H32zm0 0M32 344h64v16H32zm0 0M32 312h64v16H32zm0 0"/>
</svg>