<svg xmlns="http://www.w3.org/2000/svg" width="40" height="40" viewBox="0 0 7.797 40">
	<g fill="#fff">
		<path d="M8.305 5.538a.695.695 0 00-.32.106c-2.13.92-5.678.92-9.37 4.478C-1.097 9.27-.177 7.85.888 7.063c-1.275.288-2.34.71-2.695.92-.355.212-.499.356-.643.567-.853 1.14-2.061 3.625-2.627 6.828-.355-2.062-.067-4.2.067-5.265-.853.71-1.63 1.707-1.985 2.206-.288.355-.355.642-.355.92-.067.71.144 4.488 1.563 7.47-1.419-1.14-2.56-3.557-3.05-4.91a14.44 14.44 0 00-.71 3.415c0 .71.288 1.064.423 1.352.21.432 2.129 3.768 6.109 6.05-1.496-.143-4.613-1.85-6.11-3.135.355 1.352.71 2.283 1.276 3.27.211.432.422.643 1.142.998 1.774.997 4.334 1.994 8.17 1.918-1.918.853-4.795.853-6.713.354.144.144.643.643 1.276 1.065.776.565 1.917 1.208 3.337 1.496 2.915.566 6.463-1.497 5.61-5.342 0 0-.422 1.065-1.63 1.42 1.419-1.42 1.275-3.702-1.208-3.99-.998-.144-2.628 0-3.127 0-.498 0-1.141 0-1.63-.565 0 0 .71-.068 1.419-.212.566-.144 1.707-.642 2.484-.565-.068-.144-.355-.566-1.496-.144-.288.067-.777.067-1.142-.355 1.142.287 1.564-.998 2.629-.288.21.144.565.144.421-.144-.21-.355-.421-.566-.997-.566-1.275-.067-2.273-.143-3.126.288a4.698 4.698 0 00-1.209.853c0-.565.067-2.061.854-2.77.853-.71 2.695-1.065 3.481-1.21 0 0-.21-.43 0-.709.355-.431 1.42-1.208 7.768-1.208l-.5.499c.922.067 2.418.287 3.98.853.145.067.5.144.921-.566.144-.21 0-.21-.355-.431a.826.826 0 00.068-.355c0-.211-.144-.144-.211-.067-.211.144-.643.144-.71-.067-.067-.211-.422-.71-1.208-.854 0 0 .499-.566 1.563-.355 0 0 .067.288.288.211.21-.067.354-.288.498-.067a.672.672 0 01.067.355c-.067.144 0 .211.211.068.144-.068.211-.212.355-.356 0 0 .355.144.853 0 .288-.067.777-.498.998-1.208.287-.211.566-.642.422-.786-.287-.21-1.707-1.065-2.062-1.286-.354-.21-1.065-.709-.998-1.562l-.047.01c.067-.921-.499-2.14-2.273-3.703 0 0-.067.288 0 .432 0 0-.566-.643-1.841-.92 0 0 .144-.567.21-.922 0-.215-.118-.468-.388-.46zm-.671 1.004c.094.017.089.115.005.157h-.01c-.21.288-.71.92-.565 1.352 0 0-.5.144-.921.355-.211.144-.288 0-.211-.21.354-.787.92-1.21 1.42-1.564.132-.08.225-.1.282-.09zm-1.779 2.86c-2.129 1.852-2.273 4.268-2.273 4.268.355-.143.5-.21.854-.287.288-.067.499-.067.288.21-.643.922-.643 2.705.288 3.06-.643 0-1.142.067-1.708.144-.067-1.563.211-2.494.211-2.494-.354.144-.776.355-.997.432-.067-1.707 1.42-4.555 3.337-5.332zm5.822.999c.143.566.143.997 0 1.208-.068.287-.068.354-.356.287-.067-.067-.354-.144-.421-.144-.144-.067-.211-.066-.144.068.067.144.287.642.21.997 0 0-.498-1.064-1.275-1.707.288-.067.997 0 1.42.144.21.067.422.067.566-.853zm-9.811 7.816s-.997.92-.499 1.419c.068.067.288.067.566 0 .211-.068.643-.211.92-.288 0 0 .068 0 .068.067-.144.211-.422.643-.499.854-.067.287-.144.431.355.565.422.144 2.771.853 4.19 1.85 1.42.921 4.757 3.559 4.546 8.402.777-.566 1.487-1.141 1.918-1.563.067-.067.068-.288.068-.288-.638-1.409-1.967-3.46-3.45-4.39.498.142 1.2.207 1.618-.002-2.206-.566-3.405-3.702-8.449-4.124-.211 0-.71.067-.422-.432.288-.498 2.273-1.85 2.273-1.85-.355 0-2.062.144-2.56.211-.5.067-.643-.067-.643-.431zm13.847 0c0 .003-.003.007-.004.01.001 0 .003 0 .004-.002zm-.004.01c-.853.43-1.914.565-2.556.565 1.276.499 2.982 1.419 4.19 2.416-.067-.431 0-.853 0-1.14 0-.145-.066-.212-.066-.212-1.42-.566-2.273-.786-2.273-.786.35-.142.633-.556.705-.843zM9.68 21.122v.02c2.34.997 4.613 3.413 5.754 5.753.211-.355.71-1.208 1.065-2.139 0-.144-.067-.21-.144-.287-1.985-1.707-4.402-2.916-6.675-3.347zm-1.774 5.284c.854 1.784.499 4.766-1.774 6.905.499-.144 1.486-.355 2.34-.643.144-.077.211-.211.211-.288.499-1.352.71-4.344-.777-5.974z"/>
		<path d="M3.898 2c-9.945 0-17.961 8.045-17.961 18 0 9.963 8.026 18 17.961 18 9.945 0 17.962-8.037 17.962-18 .067-9.964-8.027-18-17.962-18zm0 1.928c8.947 0 16.12 7.182 16.12 16.149 0 8.9-7.173 16.081-16.12 16.081-8.88 0-16.12-7.182-16.12-16.081 0-8.9 7.24-16.15 16.12-16.15z"/>
	</g>
</svg>