<svg xmlns="http://www.w3.org/2000/svg" viewBox="0 0 193.873 226.98">
	<g fill="none" stroke="#FFF" stroke-width="6" stroke-linecap="round" stroke-linejoin="round" stroke-miterlimit="10">
		<path d="M96.948 223.98s93.925-26.959 93.925-90.601V30.843L96.948 3 3 30.843v102.536c0 63.642 93.929 90.601 93.929 90.601"/>
		<path d="M96.948 223.98s93.925-26.959 93.925-90.601V30.843L96.948 3 3 30.843v102.536c0 63.642 93.929 90.601 93.929 90.601"/>
		<path d="M96.947 199.098s72.73-20.888 72.73-70.197V49.456l-72.73-21.571-72.746 21.571V128.9c0 49.309 72.73 70.197 72.73 70.197"/>
		<path d="M96.947 199.098s72.73-20.888 72.73-70.197V49.456l-72.73-21.571-72.746 21.571V128.9c0 49.309 72.73 70.197 72.73 70.197"/>
	</g>
</svg>