<svg width="253" height="169" viewBox="0 0 253 169" fill="none" xmlns="http://www.w3.org/2000/svg">
	<path d="M7 14C7 8.47715 11.4772 4 17 4L238 4C243.523 4 248 8.47715 248 14L248 154C248 159.523 243.523 164 238 164L17 164C11.4772 164 7 159.523 7 154L7 14Z" stroke="#9C9AB1" stroke-width="3" stroke-miterlimit="10"/>
	<path d="M25 80V119H85V80M25 80V41H85V80M25 80H85M34 53H70M34 61.9999L52 61.9999" stroke="#9C9AB1" stroke-width="3" stroke-miterlimit="10"/>
	<path d="M58 92H70M37 92H49V107H37V92Z" stroke="#9C9AB1" stroke-width="3" stroke-miterlimit="10"/>
	<path d="M130.719 71.125C130.719 71.125 126.281 73.3438 126.281 80C126.281 86.6562 132.938 88.875 132.938 88.875C132.938 105.266 157.344 115.5 164 115.5C170.656 115.5 195.062 105.266 195.062 88.875C195.062 88.875 201.719 86.6562 201.719 80C201.719 73.3438 197.281 71.125 197.281 71.125M130.719 71.125C130.719 71.125 128.5 71.125 128.5 57.8125C128.5 44.5 137.375 22.3125 164 22.3125C190.625 22.3125 199.5 44.5 199.5 57.8125C199.5 66.6875 197.281 71.125 197.281 71.125M130.719 71.125C130.719 71.125 135.156 75.5625 141.812 75.5625C141.812 75.5625 139.594 57.8125 146.25 53.375C150.688 62.25 164 71.125 172.875 71.125C172.875 71.125 168.438 62.25 172.875 57.8125C177.312 68.9062 190.625 71.125 197.281 71.125M172.875 113.168L177.312 128.812C177.312 128.812 202.75 133.688 210 139.5C217.25 145.312 217.25 150.5 217.25 150.5M155.125 113.281L150.688 128.812C150.688 128.812 134.719 124 115 124C104 124 88 110.5 85 103.5M66 120C73 134.5 93.5 138.688 93.5 150.5" stroke="#9C9AB1" stroke-width="3" stroke-miterlimit="10"/>
	<path d="M52 36C52 33.7909 50.2091 32 48 32C45.7909 32 44 33.7909 44 36" stroke="#9C9AB1" stroke-width="3" stroke-miterlimit="10"/>
	<path d="M60 36C60 33.7909 58.2091 32 56 32C53.7909 32 52 33.7909 52 36" stroke="#9C9AB1" stroke-width="3" stroke-miterlimit="10"/>
	<path d="M68 36C68 33.7909 66.2091 32 64 32C61.7909 32 60 33.7909 60 36" stroke="#9C9AB1" stroke-width="3" stroke-miterlimit="10"/>
</svg>
