<svg version="1.1"
	xmlns="http://www.w3.org/2000/svg"
	xmlns:xlink="http://www.w3.org/1999/xlink"
	x="0px"
	y="0px"
	viewBox="0 0 61 78"
	style="enable-background:new 0 0 61 78;"
	xml:space="preserve">
	<g>
		<path class="st0" d="M55.32,78H5.68C2.55,78,0,75.52,0,72.48V5.52C0,2.48,2.55,0,5.68,0h29.03c1.51,0,2.93,0.57,4,1.61l20.6,18.09
			C60.4,20.75,61,22.14,61,23.62v48.86C61,75.52,58.45,78,55.32,78z M5.68,2C3.65,2,2,3.58,2,5.52v66.95C2,74.42,3.65,76,5.68,76
			h49.63c2.03,0,3.68-1.58,3.68-3.52V23.62c0-0.92-0.37-1.8-1.05-2.46L37.36,3.08C36.63,2.37,35.7,2,34.71,2H5.68z"/>
	</g>
	<g>
		<path class="st0" d="M57.96,21.18l-0.32-0.28c-0.66-0.52-1.47-0.8-2.33-0.8H44.08c-3.13,0-5.68-2.48-5.68-5.52V5.52
			c0-0.93-0.38-1.81-1.07-2.48l1.35-1.47l20.24,17.78c0.14,0.11,0.27,0.23,0.4,0.35L57.96,21.18z M40.4,5.75v8.83
			c0,1.94,1.65,3.52,3.68,3.52h10.38L40.4,5.75z"/>
	</g>
	<g>
		<path class="st2" d="M40.72,30.96H9.22c-0.83,0-1.5-0.67-1.5-1.5s0.67-1.5,1.5-1.5h31.5c0.83,0,1.5,0.67,1.5,1.5
			S41.55,30.96,40.72,30.96z"/>
	</g>
	<g>
		<path class="st2" d="M49.1,36.96H9.22c-0.83,0-1.5-0.67-1.5-1.5s0.67-1.5,1.5-1.5H49.1c0.83,0,1.5,0.67,1.5,1.5
			S49.93,36.96,49.1,36.96z"/>
	</g>
	<g>
		<path class="st2" d="M22.17,18.92H9.22c-0.83,0-1.5-0.67-1.5-1.5s0.67-1.5,1.5-1.5h12.94c0.83,0,1.5,0.67,1.5,1.5
			S23,18.92,22.17,18.92z"/>
	</g>
	<g>
		<path class="st2" d="M31.26,42.96H9.22c-0.83,0-1.5-0.67-1.5-1.5s0.67-1.5,1.5-1.5h22.03c0.83,0,1.5,0.67,1.5,1.5
			S32.09,42.96,31.26,42.96z"/>
	</g>
	<g>
		<path class="st2" d="M31.26,59.96H9.22c-0.83,0-1.5-0.67-1.5-1.5s0.67-1.5,1.5-1.5h22.03c0.83,0,1.5,0.67,1.5,1.5
			S32.09,59.96,31.26,59.96z"/>
	</g>
	<g>
		<path class="st2" d="M16.26,64.96H9.22c-0.83,0-1.5-0.67-1.5-1.5s0.67-1.5,1.5-1.5h7.03c0.83,0,1.5,0.67,1.5,1.5
			S17.09,64.96,16.26,64.96z"/>
	</g>
</svg>
