<svg xmlns="http://www.w3.org/2000/svg" viewBox="0 0 22 22">?   <g transform="translate(-9 -9)" fill="#82b23b">
      <circle stroke="null" cy="20" cx="20" fill-opacity="null" stroke-opacity="null" stroke-width="null" fill="#fff" r="10"/>
      <path fill="green" d="M20 30.573C14.169 30.573 9.426 25.83 9.426 20S14.169 9.427 20 9.427c5.831 0 10.574 4.743 10.574 10.573S25.831 30.573 20 30.573zm0-20c-5.198 0-9.426 4.229-9.426 9.427 0 5.198 4.229 9.427 9.426 9.427s9.426-4.229 9.426-9.427c0-5.198-4.229-9.427-9.426-9.427z"/>
      <path fill="green" d="M17.385 18.483h1.01c.06-1.055.456-1.919 1.679-1.919.899 0 1.463.576 1.463 1.511 0 .504-.168.864-.684 1.379-.983.983-1.319 1.295-1.319 2.747v.072h.984c0-1.403.36-1.559 1.163-2.315.588-.552.935-1.103.935-2 0-1.403-.996-2.303-2.531-2.303-1.835 0-2.698 1.259-2.698 2.83zm3.25 4.653h-1.259v1.211h1.259v-1.211z"/>
   </g>
</svg>