<svg xmlns="http://www.w3.org/2000/svg" viewBox="0 0 894 894">
	<circle fill="none" cx="447" cy="447" r="437.5"/>
	<path fill="none" stroke="#FFF" stroke-width="18" stroke-linecap="round" stroke-linejoin="round" stroke-miterlimit="10" d="M586.155 227.913v-6.392c0-12.076-9.907-21.968-21.968-21.968H257.366c-12.095 0-21.968 9.892-21.968 21.968v388.974c0 12.078 9.873 21.952 21.968 21.952h16.887"/>
	<path fill="none" stroke="#FFF" stroke-width="18" stroke-linecap="round" d="M586.592 467.673H379.885M586.592 344.143H379.885M586.592 405.907H379.885"/>
	<path fill="none" stroke="#FFF" stroke-width="18" stroke-linecap="round" stroke-linejoin="round" d="M658.602 598.451V283.506c0-12.095-9.89-21.951-21.95-21.951H329.845c-12.095 0-21.968 9.856-21.968 21.951V672.48c0 12.076 9.873 21.968 21.968 21.968H562.64"/>
	<path fill="none" stroke="#FFF" stroke-width="18" stroke-linecap="round" stroke-linejoin="round" d="M562.641 694.447v-95.996h95.961z"/>
</svg>