<svg width="18" height="20" viewBox="0 0 18 20" fill="none" xmlns="http://www.w3.org/2000/svg">
<path fill-rule="evenodd" clip-rule="evenodd" d="M3.16602 4.16683C2.70578 4.16683 2.33268 4.53993 2.33268 5.00016V16.6668C2.33268 17.1271 2.70578 17.5002 3.16602 17.5002H14.8327C15.2929 17.5002 15.666 17.1271 15.666 16.6668V5.00016C15.666 4.53993 15.2929 4.16683 14.8327 4.16683H3.16602ZM0.666016 5.00016C0.666016 3.61945 1.7853 2.50016 3.16602 2.50016H14.8327C16.2134 2.50016 17.3327 3.61945 17.3327 5.00016V16.6668C17.3327 18.0475 16.2134 19.1668 14.8327 19.1668H3.16602C1.7853 19.1668 0.666016 18.0475 0.666016 16.6668V5.00016Z" fill="#C4C4C4"/>
<path fill-rule="evenodd" clip-rule="evenodd" d="M12.3327 0.833496C12.7929 0.833496 13.166 1.20659 13.166 1.66683V5.00016C13.166 5.4604 12.7929 5.8335 12.3327 5.8335C11.8724 5.8335 11.4993 5.4604 11.4993 5.00016V1.66683C11.4993 1.20659 11.8724 0.833496 12.3327 0.833496Z" fill="#C4C4C4"/>
<path fill-rule="evenodd" clip-rule="evenodd" d="M5.66602 0.833496C6.12625 0.833496 6.49935 1.20659 6.49935 1.66683V5.00016C6.49935 5.4604 6.12625 5.8335 5.66602 5.8335C5.20578 5.8335 4.83268 5.4604 4.83268 5.00016V1.66683C4.83268 1.20659 5.20578 0.833496 5.66602 0.833496Z" fill="#C4C4C4"/>
<path fill-rule="evenodd" clip-rule="evenodd" d="M0.666016 8.3335C0.666016 7.87326 1.03911 7.50016 1.49935 7.50016H16.4993C16.9596 7.50016 17.3327 7.87326 17.3327 8.3335C17.3327 8.79373 16.9596 9.16683 16.4993 9.16683H1.49935C1.03911 9.16683 0.666016 8.79373 0.666016 8.3335Z" fill="#C4C4C4"/>
</svg>
