<svg version="1.1" 
    xmlns="http://www.w3.org/2000/svg" 
    xmlns:xlink="http://www.w3.org/1999/xlink" width="24" height="21" viewBox="0 0 137.218 137.218" xml:space="preserve">
    <g fill="#b2b8b9">
        <path d="M128.942,77.41l0.87-0.574c1.693-1.171,2.091-3.483,0.919-5.165c-1.182-1.697-3.507-2.08-5.165-0.925
                                        c-58.011,40.558-100.239,1.996-102.013,0.339c-1.497-1.401-3.856-1.33-5.25,0.158c-1.401,1.494-1.333,3.831,0.149,5.237
                                        c0.08,0.076,1.401,1.285,3.812,3.074l-7.431,12.255c-1.06,1.748-0.504,4.03,1.245,5.099c0.598,0.36,1.277,0.541,1.934,0.541
                                        c1.249,0,2.465-0.635,3.172-1.778l7.266-11.973c4.074,2.48,9.298,5.188,15.522,7.476l-3.581,11.972
                                        c-0.593,1.971,0.516,4.027,2.475,4.613l1.068,0.158c1.583,0,3.063-1.04,3.545-2.649l3.546-11.808
                                        c5.745,1.571,12.172,2.632,19.108,2.884v11.858c0,2.052,1.657,3.709,3.709,3.709c2.05,0,3.708-1.657,3.708-3.709V96.278
                                        c6.052-0.332,12.466-1.373,19.163-3.283l4.565,12.038c0.569,1.483,1.979,2.391,3.468,2.391l1.312-0.234
                                        c1.915-0.728,2.886-2.867,2.158-4.781l-4.445-11.729c6.098-2.265,12.401-5.247,18.911-9.203l6.009,8.021
                                        c0.732,0.969,1.849,1.489,2.965,1.489c0.778,0,1.555-0.236,2.222-0.745c1.644-1.23,1.976-3.555,0.752-5.192L128.942,77.41z" />
    </g>
</svg>