<svg xmlns="http://www.w3.org/2000/svg" viewBox="0 0 140 40">
	<defs>
		<linearGradient x1="23.43" y1="15.97" x2="11.63" y2="27.77" id="0" gradientUnits="userSpaceOnUse">
			<stop style="stop-color:#00a0ff"/>
			<stop offset=".01" style="stop-color:#00a1ff"/>
			<stop offset=".26" style="stop-color:#00beff"/>
			<stop offset=".51" style="stop-color:#00d2ff"/>
			<stop offset=".76" style="stop-color:#00dfff"/>
			<stop offset="1" style="stop-color:#00e3ff"/>
		</linearGradient>
		<linearGradient x1="31.89" x2="14.87" id="1" gradientUnits="userSpaceOnUse">
			<stop style="stop-color:#ffe000"/>
			<stop offset=".41" style="stop-color:#ffbd00"/>
			<stop offset=".78" style="stop-color:#ffa500"/>
			<stop offset="1" style="stop-color:#ff9c00"/>
		</linearGradient>
		<linearGradient x1="34.83" y1="169.7" x2="12.1" y2="146.9" id="2" gradientUnits="userSpaceOnUse" gradientTransform="matrix(1.0023923 0 0 .99072976-9.8-150.3)">
			<stop style="stop-color:#ff3a44"/>
			<stop offset="1" style="stop-color:#c31162"/>
		</linearGradient>
		<linearGradient x1="17.3" y1="191.8" x2="27.46" y2="181.7" id="3" gradientUnits="userSpaceOnUse" gradientTransform="matrix(1.0023923 0 0 .99072976-9.8-150.3)">
			<stop style="stop-color:#32a071"/>
			<stop offset=".07" style="stop-color:#2da771"/>
			<stop offset=".48" style="stop-color:#15cf74"/>
			<stop offset=".8" style="stop-color:#06e775"/>
			<stop offset="1" style="stop-color:#00f076"/>
		</linearGradient>
	</defs>
	<path d="m16.35 33.97c-.23-.25-.37-.63-.37-1.13l0-17.69c0-.5.14-.88.37-1.13l.06-.05 9.91 9.91 0 .23-9.91 9.91-.06-.06" transform="matrix(1.4253683 0 0-1.4087845-11.31 53.81)" style="fill:url(#0)"/>
	<path d="m29.62 20.58l-3.3 3.31 0 .23 3.31 3.31.07-.04 3.91-2.23c1.12-.63 1.12-1.67 0-2.31l-3.91-2.22-.08-.04" transform="matrix(1.4253683 0 0-1.4087845-11.31 53.81)" style="fill:url(#1)"/>
	<g style="stroke-width:1.43">
		<path d="m31 24.76c0 0-4.82-4.76-4.82-4.76 0 0-14.21 14-14.21 14 .53.55 1.39.62 2.37.07 0 0 16.66-9.36 16.66-9.36" style="fill:url(#2)"/>
		<path d="m31 15.24c0 0-16.66-9.36-16.66-9.36-.98-.54-1.84-.48-2.37.07 0 0 14.21 14 14.21 14 0 0 4.82-4.76 4.82-4.76" style="fill:url(#3)"/>
	</g>
	<path fill="#ffffff" d="m70.3 18.2c-2.37 0-4.31 1.78-4.31 4.24 0 2.44 1.94 4.24 4.31 4.24 2.38 0 4.31-1.8 4.31-4.24 0-2.46-1.94-4.24-4.31-4.24m0 6.81c-1.3 0-2.42-1.06-2.42-2.57 0-1.53 1.12-2.57 2.42-2.57 1.3 0 2.42 1.04 2.42 2.57 0 1.51-1.12 2.57-2.42 2.57m-9.4-6.81c-2.38 0-4.31 1.78-4.31 4.24 0 2.44 1.93 4.24 4.31 4.24 2.37 0 4.31-1.8 4.31-4.24 0-2.46-1.93-4.24-4.31-4.24m0 6.81c-1.3 0-2.42-1.06-2.42-2.57 0-1.53 1.12-2.57 2.42-2.57 1.3 0 2.42 1.04 2.42 2.57 0 1.51-1.12 2.57-2.42 2.57m-11.18-5.51l0 1.8 4.36 0c-.13 1-.47 1.75-.99 2.26-.64.62-1.63 1.32-3.37 1.32-2.68 0-4.78-2.14-4.78-4.79 0-2.65 2.1-4.79 4.78-4.79 1.45 0 2.5.56 3.28 1.29l1.29-1.27c-1.09-1.03-2.54-1.82-4.57-1.82-3.68 0-6.76 2.96-6.76 6.59 0 3.63 3.09 6.59 6.76 6.59 1.99 0 3.48-.64 4.65-1.85 1.2-1.19 1.58-2.86 1.58-4.21 0-.42-.04-.8-.1-1.13l-6.13 0m45.72 1.4c-.35-.95-1.45-2.7-3.68-2.7-2.21 0-4.04 1.72-4.04 4.24 0 2.38 1.82 4.24 4.26 4.24 1.97 0 3.11-1.19 3.58-1.88l-1.46-.96c-.49.71-1.15 1.17-2.11 1.17-.95 0-1.64-.43-2.08-1.29l5.74-2.35-.2-.48m-5.85 1.41c-.05-1.64 1.29-2.47 2.24-2.47.75 0 1.38.37 1.6.9l-3.84 1.57m-4.67 4.12l1.89 0 0-12.47-1.89 0 0 12.47m-3.09-7.28l-.06 0c-.42-.5-1.23-.94-2.26-.94-2.15 0-4.11 1.86-4.11 4.26 0 2.38 1.97 4.23 4.11 4.23 1.02 0 1.83-.45 2.26-.96l.06 0 0 .61c0 1.62-.88 2.49-2.29 2.49-1.15 0-1.87-.82-2.16-1.51l-1.64.68c.47 1.12 1.73 2.51 3.8 2.51 2.21 0 4.08-1.29 4.08-4.42l0-7.62-1.79 0 0 .69m-2.16 5.87c-1.3 0-2.39-1.08-2.39-2.56 0-1.49 1.09-2.59 2.39-2.59 1.28 0 2.29 1.09 2.29 2.59 0 1.48-1 2.56-2.29 2.56m24.6-11.1l-4.51 0 0 12.47 1.88 0 0-4.72 2.63 0c2.09 0 4.14-1.49 4.14-3.87 0-2.38-2.05-3.87-4.14-3.87m.05 6l-2.68 0 0-4.27 2.68 0c1.41 0 2.21 1.15 2.21 2.14 0 .96-.8 2.14-2.21 2.14m11.63-1.79c-1.36 0-2.77.59-3.36 1.91l1.67.69c.36-.69 1.02-.92 1.72-.92.98 0 1.97.58 1.98 1.6l0 .13c-.34-.19-1.07-.48-1.97-.48-1.8 0-3.63.98-3.63 2.8 0 1.67 1.47 2.75 3.13 2.75 1.27 0 1.97-.56 2.4-1.22l.06 0 0 .96 1.82 0 0-4.78c0-2.21-1.67-3.45-3.83-3.45m-.23 6.83c-.62 0-1.47-.3-1.47-1.06 0-.96 1.07-1.34 2-1.34.83 0 1.22.18 1.72.42-.15 1.15-1.15 1.97-2.24 1.97m10.68-6.56l-2.16 5.4-.06 0-2.24-5.4-2.03 0 3.36 7.55-1.92 4.2 1.97 0 5.18-11.75-2.09 0m-16.96 7.98l1.89 0 0-12.47-1.89 0 0 12.47"/>
</svg>