<svg xmlns="http://www.w3.org/2000/svg" viewBox="0 0 140 40">
	<g transform="translate(-0.49 9.44)" style="fill:#ffffff">
		<g transform="matrix(1.0383558 0 0 1.0383558 -3.06 -11.31)">
			<path d="m 30.1 19.78 c -0.03 -3.22 2.64 -4.79 2.76 -4.86 -1.51 -2.2 -3.85 -2.5 -4.68 -2.53 -1.97 -0.21 -3.88 1.18 -4.88 1.18 -1.02 0 -2.57 -1.16 -4.23 -1.12 -2.14 0.03 -4.14 1.27 -5.24 3.2 -2.27 3.92 -0.58 9.69 1.6 12.86 1.09 1.55 2.36 3.29 4 3.23 1.63 -0.07 2.23 -1.04 4.19 -1.04 1.94 0 2.51 1.04 4.21 1 1.74 -0.03 2.84 -1.56 3.89 -3.13 1.26 -1.78 1.76 -3.53 1.78 -3.62 -0.04 -0.01 -3.39 -1.29 -3.42 -5.15 z"/>
			<path d="m 26.93 10.31 c 0.87 -1.09 1.47 -2.58 1.31 -4.09 -1.27 0.06 -2.85 0.88 -3.76 1.94 -0.81 0.94 -1.53 2.49 -1.34 3.94 1.42 0.11 2.88 -0.72 3.79 -1.79 z"/>
		</g>
		<g transform="matrix(1.1464196 0 0 1.1464196 -9.28 -16.88)">
			<path d="m 53.65 31.5 h -2.27 l -1.24 -3.91 h -4.32 l -1.19 3.91 h -2.21 l 4.28 -13.31 h 2.65 l 4.31 13.31 z m -3.89 -5.55 l -1.13 -3.47 c -0.12 -0.36 -0.34 -1.19 -0.67 -2.51 h -0.04 c -0.13 0.57 -0.34 1.4 -0.63 2.51 l -1.1 3.48 h 3.57 z"/>
			<path d="m 64.7 26.59 c 0 1.63 -0.44 2.92 -1.32 3.87 -0.79 0.84 -1.77 1.26 -2.94 1.26 -1.26 0 -2.17 -0.45 -2.73 -1.36 h -0.04 v 5.1 h -2.13 v -10.35 c 0 -1.03 -0.03 -2.08 -0.08 -3.16 h 1.88 l 0.12 1.52 h 0.04 c 0.71 -1.15 1.79 -1.72 3.24 -1.72 1.13 0 2.08 0.45 2.83 1.34 0.76 0.9 1.14 2.07 1.14 3.54 z m -2.17 0.08 c 0 -0.93 -0.21 -1.7 -0.63 -2.31 -0.46 -0.63 -1.08 -0.95 -1.86 -0.95 -0.53 0 -1 0.18 -1.43 0.52 -0.43 0.35 -0.71 0.81 -0.84 1.37 -0.07 0.26 -0.1 0.48 -0.1 0.65 v 1.6 c 0 0.7 0.21 1.29 0.64 1.77 0.43 0.48 0.98 0.72 1.67 0.72 0.8 0 1.43 -0.31 1.88 -0.93 0.45 -0.62 0.67 -1.43 0.67 -2.45 z"/>
			<path d="m 75.7 26.59 c 0 1.63 -0.44 2.92 -1.32 3.87 -0.79 0.84 -1.77 1.26 -2.94 1.26 -1.26 0 -2.17 -0.45 -2.72 -1.36 h -0.04 v 5.1 h -2.13 v -10.35 c 0 -1.03 -0.03 -2.08 -0.08 -3.16 h 1.88 l 0.12 1.52 h 0.04 c 0.71 -1.15 1.79 -1.72 3.24 -1.72 1.13 0 2.08 0.45 2.83 1.34 0.75 0.9 1.13 2.07 1.13 3.54 z m -2.17 0.08 c 0 -0.93 -0.21 -1.7 -0.63 -2.31 -0.46 -0.63 -1.08 -0.95 -1.86 -0.95 -0.53 0 -1 0.18 -1.43 0.52 -0.43 0.35 -0.71 0.81 -0.84 1.37 -0.06 0.26 -0.1 0.48 -0.1 0.65 v 1.6 c 0 0.7 0.21 1.29 0.64 1.77 0.43 0.48 0.98 0.72 1.67 0.72 0.8 0 1.43 -0.31 1.88 -0.93 0.45 -0.62 0.67 -1.43 0.67 -2.45 z"/>
			<path d="m 88 27.77 c 0 1.13 -0.39 2.05 -1.18 2.76 -0.87 0.78 -2.07 1.16 -3.63 1.16 -1.43 0 -2.58 -0.28 -3.45 -0.83 l 0.49 -1.78 c 0.94 0.57 1.96 0.85 3.08 0.85 0.8 0 1.43 -0.18 1.88 -0.54 0.45 -0.36 0.67 -0.85 0.67 -1.45 0 -0.54 -0.18 -1 -0.55 -1.36 -0.37 -0.37 -0.98 -0.71 -1.84 -1.03 -2.33 -0.87 -3.49 -2.14 -3.49 -3.82 0 -1.09 0.41 -1.99 1.22 -2.69 0.81 -0.7 1.9 -1.05 3.26 -1.05 1.21 0 2.22 0.21 3 0.63 l -0.53 1.74 c -0.75 -0.41 -1.6 -0.61 -2.55 -0.61 -0.75 0 -1.34 0.18 -1.76 0.55 -0.36 0.33 -0.53 0.73 -0.53 1.21 0 0.53 0.2 0.96 0.61 1.3 0.36 0.32 1 0.66 1.94 1.03 1.14 0.46 1.99 1 2.53 1.62 0.54 0.62 0.81 1.39 0.81 2.31 z"/>
			<path d="m 95.1 23.51 h -2.35 v 4.66 c 0 1.18 0.41 1.78 1.24 1.78 0.38 0 0.7 -0.03 0.95 -0.1 l 0.06 1.62 c -0.42 0.16 -0.97 0.24 -1.66 0.24 -0.84 0 -1.5 -0.26 -1.97 -0.77 -0.47 -0.51 -0.71 -1.38 -0.71 -2.59 v -4.84 h -1.4 v -1.6 h 1.4 v -1.76 l 2.09 -0.63 v 2.39 h 2.35 v 1.6 z"/>
			<path d="m 105.7 26.63 c 0 1.48 -0.42 2.69 -1.26 3.63 -0.88 0.98 -2.06 1.46 -3.52 1.46 -1.41 0 -2.53 -0.47 -3.36 -1.4 -0.84 -0.93 -1.25 -2.11 -1.25 -3.53 0 -1.49 0.43 -2.71 1.29 -3.65 0.86 -0.95 2.02 -1.42 3.48 -1.42 1.41 0 2.54 0.47 3.4 1.4 0.82 0.91 1.23 2.08 1.23 3.51 z m -2.21 0.07 c 0 -0.89 -0.19 -1.64 -0.57 -2.28 -0.45 -0.77 -1.09 -1.15 -1.91 -1.15 -0.86 0 -1.51 0.38 -1.95 1.15 -0.38 0.63 -0.57 1.41 -0.57 2.32 0 0.89 0.19 1.64 0.57 2.28 0.46 0.77 1.11 1.15 1.94 1.15 0.81 0 1.45 -0.39 1.91 -1.17 0.39 -0.64 0.59 -1.41 0.59 -2.3 z"/>
			<path d="m 112.6 23.78 c -0.21 -0.04 -0.44 -0.06 -0.67 -0.06 -0.75 0 -1.33 0.28 -1.74 0.85 -0.36 0.5 -0.53 1.13 -0.53 1.89 v 5 h -2.13 l 0.02 -6.57 c 0 -1.11 -0.03 -2.11 -0.08 -3 h 1.86 l 0.08 1.84 h 0.06 c 0.22 -0.63 0.58 -1.14 1.07 -1.52 0.47 -0.34 0.99 -0.51 1.54 -0.51 0.2 0 0.38 0.01 0.53 0.04 v 2.03 z"/>
			<path d="m 122.2 26.3 c 0 0.38 -0.03 0.7 -0.08 0.97 h -6.4 c 0.03 0.95 0.33 1.67 0.93 2.17 0.54 0.45 1.24 0.67 2.09 0.67 0.95 0 1.81 -0.15 2.59 -0.45 l 0.33 1.48 c -0.91 0.4 -1.98 0.59 -3.22 0.59 -1.49 0 -2.66 -0.44 -3.51 -1.31 -0.85 -0.88 -1.27 -2.05 -1.27 -3.52 0 -1.45 0.39 -2.65 1.19 -3.61 0.83 -1.03 1.95 -1.54 3.36 -1.54 1.38 0 2.43 0.51 3.14 1.54 0.56 0.82 0.85 1.82 0.85 3 z m -2.03 -0.55 c 0.01 -0.63 -0.13 -1.18 -0.41 -1.64 -0.37 -0.59 -0.94 -0.89 -1.7 -0.89 -0.7 0 -1.26 0.29 -1.7 0.87 -0.36 0.46 -0.57 1.01 -0.63 1.66 h 4.44 z"/>
		</g>
	</g>
</svg>