<svg xmlns="http://www.w3.org/2000/svg" viewBox="0 0 210.27 210.276">
	<g fill="none" stroke="#FFF" stroke-width="6" stroke-linecap="round" stroke-linejoin="round" stroke-miterlimit="10">
		<path d="M180.915 3H29.354C14.855 3 3 14.86 3 29.354v151.562c0 14.5 11.855 26.361 26.354 26.361h151.561c14.5 0 26.354-11.861 26.354-26.361V29.354C207.27 14.86 195.415 3 180.915 3h0z"/>
		<path d="M184.689 53.154V36.598c0-6.067-4.951-11.024-11.018-11.024H36.598c-6.067 0-11.03 4.957-11.03 11.024v137.074c0 6.067 4.962 11.03 11.03 11.03h137.074c6.067 0 11.018-4.962 11.018-11.03l-.358-16.556M184.689 127.278V82.997"/>
		<path d="M105.129 59.524c-25.19 0-45.61 20.421-45.61 45.61s20.421 45.61 45.61 45.61 45.61-20.421 45.61-45.61-20.421-45.61-45.61-45.61h0z"/>
		<path d="M105.129 80.977c-13.335 0-24.158 10.817-24.158 24.158 0 13.341 10.823 24.158 24.158 24.158 13.347 0 24.158-10.818 24.158-24.158 0-13.341-10.811-24.158-24.158-24.158h0zM105.129 59.524v10.927M72.877 72.884l7.73 7.722M59.518 105.135h10.933M72.877 137.386l7.73-7.723M105.129 150.745v-10.926M137.38 137.386l-7.717-7.723M150.739 105.135h-10.92M137.38 72.884l-7.717 7.722M191.933 53.154h-15.204c-.667 0-1.225.934-1.225 2.069v25.705c0 1.134.558 2.069 1.225 2.069h15.204c.667 0 1.225-.934 1.225-2.069V55.223c0-1.134-.558-2.069-1.225-2.069h0zM191.933 127.278h-15.204c-.667 0-1.225.928-1.225 2.069v25.7c0 1.141.558 2.069 1.225 2.069h15.204c.667 0 1.225-.928 1.225-2.069v-25.7c0-1.14-.558-2.069-1.225-2.069h0z"/>
	</g>
</svg>