<svg xmlns="http://www.w3.org/2000/svg" viewBox="0 0 20 20">
	<g style="fill:#84b245">
		<path d="m 5 1 v 3 h 1 v -3 z m 9 0 v 3 h 1 v -3 z m -12 1 v 5 v 1 v 10 h 16 v -10 v -1 v -5 h -2 v 1 h 1 v 4 h -14 v -4 h 1 v -1 z m 5 0 v 1 h 6 v -1 z m -4 6 h 14 v 9 h -14 z"/>
		<g transform="translate(0 -1032.3)">
			<path d="m 7.86 1041.9 h -0.59 c -0.21 0.93 -0.87 1.15 -1.79 1.15 v 0.56 h 1.56 v 4.49 h 0.81 v -6.19"/>
			<path d="m 12 1041.9 c -1.92 0 -2.07 1.76 -2.07 3.24 0 1.48 0.22 3.09 2.1 3.09 1.78 0 2.04 -1.61 2.04 -3.07 0 -1.48 -0.14 -3.26 -2.07 -3.26 m 0 0.66 c 1.3 0 1.28 1.62 1.28 2.54 0 0.89 0.01 2.47 -1.26 2.47 -1.27 0 -1.3 -1.51 -1.3 -2.43 0 -0.94 -0.03 -2.57 1.28 -2.57"/>
		</g>
	</g>
</svg>