<svg xmlns="http://www.w3.org/2000/svg" viewBox="0 0 199.809 238.44">
	<g fill="none" stroke="#FFF" stroke-width="6" stroke-linecap="round" stroke-linejoin="round" stroke-miterlimit="10">
		<path d="M108.96 24.954l-62.716-7.031-8.802 78.531M43.022 49.448l48.453 5.431"/>
		<path d="M167.818 96.454l28.991-49.617L121.787 3 67.184 96.454M106.072 30.515l74.753 43.678M178.907 50.872l-3.285 5.612"/>
		<path d="M3 82.204v135.29c0 9.897 8.28 17.945 18.474 17.945H171.64c10.187 0 18.474-8.048 18.474-17.945V114.413c0-9.904-8.287-17.96-18.474-17.96H17.21"/>
		<path d="M190.115 141.886h-45.534c-11.746 0-21.273 10.774-21.273 24.065 0 13.283 9.527 24.064 21.273 24.064h45.534"/>
		<path d="M148.509 170.067c-1.994 0-3.618-1.624-3.618-3.611s1.624-3.611 3.618-3.611c1.987 0 3.611 1.624 3.611 3.611s-1.624 3.611-3.611 3.611"/>
		<path d="M148.509 170.067c-1.994 0-3.618-1.624-3.618-3.611s1.624-3.611 3.618-3.611c1.987 0 3.611 1.624 3.611 3.611s-1.624 3.611-3.611 3.611z"/>
		<path d="M148.509 166.145c.174 0 .312.138.312.312s-.138.312-.312.312a.311.311 0 110-.624M17.21 96.415C9.362 96.415 3 90.053 3 82.204v0c0-7.848 6.362-14.21 14.21-14.21h23.421"/>
	</g>
</svg>